<?xml version="1.0" encoding="UTF-8" standalone="no"?>
<!-- Created with Inkscape (http://www.inkscape.org/) -->

<svg
   xmlns:dc="http://purl.org/dc/elements/1.1/"
   xmlns:cc="http://creativecommons.org/ns#"
   xmlns:rdf="http://www.w3.org/1999/02/22-rdf-syntax-ns#"
   xmlns:svg="http://www.w3.org/2000/svg"
   xmlns="http://www.w3.org/2000/svg"
   xmlns:sodipodi="http://sodipodi.sourceforge.net/DTD/sodipodi-0.dtd"
   xmlns:inkscape="http://www.inkscape.org/namespaces/inkscape"
   width="210mm"
   height="140mm"
   viewBox="0 0 210 140"
   version="1.1"
   id="svg920"
   inkscape:version="0.92.2 5c3e80d, 2017-08-06"
   sodipodi:docname="resources_example_2c_shapes_present2_highlight.svg">
  <metadata
     id="metadata95">
    <rdf:RDF>
      <cc:Work
         rdf:about="">
        <dc:format>image/svg+xml</dc:format>
        <dc:type
           rdf:resource="http://purl.org/dc/dcmitype/StillImage" />
        <dc:title></dc:title>
      </cc:Work>
    </rdf:RDF>
  </metadata>
  <sodipodi:namedview
     id="namedview922"
     pagecolor="#ffffff"
     bordercolor="#000000"
     borderopacity="0.25"
     inkscape:showpageshadow="2"
     inkscape:pageopacity="0.0"
     inkscape:pagecheckerboard="0"
     inkscape:deskcolor="#d1d1d1"
     inkscape:document-units="mm"
     showgrid="true"
     inkscape:zoom="0.9660178"
     inkscape:cx="112.19271"
     inkscape:cy="235.4942"
     inkscape:window-width="2180"
     inkscape:window-height="1294"
     inkscape:window-x="178"
     inkscape:window-y="49"
     inkscape:window-maximized="0"
     inkscape:current-layer="layer2"
     showguides="false">
    <inkscape:grid
       type="xygrid"
       id="grid2181" />
  </sodipodi:namedview>
  <defs
     id="defs917" />
  <g
     inkscape:groupmode="layer"
     id="layer2"
     inkscape:label="bottom - border">
    <rect
       style="fill:none;stroke:#71c837;stroke-width:3.93240285;stroke-linecap:square;stroke-linejoin:miter;stroke-miterlimit:4;stroke-dasharray:none;stroke-opacity:1;paint-order:fill markers stroke"
       id="rect845"
       width="206.0676"
       height="136.0676"
       x="1.9662018"
       y="1.9662018" />
  </g>
  <g
     inkscape:label="Layer 1"
     inkscape:groupmode="layer"
     id="layer1"
     transform="translate(0,-157)">
    <g
       id="g908">
      <g
         id="g4557">
        <g
           id="text2077"
           style="font-style:normal;font-variant:normal;font-weight:normal;font-stretch:normal;font-size:35.27777863px;line-height:1.25;font-family:aVENIR;-inkscape-font-specification:aVENIR;letter-spacing:0px;word-spacing:0px;fill:#000000;fill-opacity:1;stroke:none;stroke-width:0.26458332"
           aria-label="+">
          <path
             inkscape:connector-curvature="0"
             id="path1039"
             style="font-style:normal;font-variant:normal;font-weight:normal;font-stretch:normal;font-size:35.27777863px;font-family:aVENIR;-inkscape-font-specification:aVENIR;stroke-width:0.26458332"
             d="m 106.05834,225.94166 h 7.9375 v 2.11667 h -7.9375 v 7.9375 h -2.11667 v -7.9375 h -7.937501 v -2.11667 h 7.937501 v -7.9375 h 2.11667 z" />
        </g>
        <g
           transform="matrix(0.23083104,0,0,0.23083104,38.86014,196.47076)"
           inkscape:label="Layer 1"
           id="layer1-79">
          <g
             id="g1345"
             style="stroke-width:1.5;stroke-dasharray:none">
            <path
               inkscape:connector-curvature="0"
               id="path971"
               d="M 110.24064,71.282262 83.394068,44.589985 110.08635,17.743418 136.93291,44.435695 Z"
               style="fill:#ffffff;stroke:#000000;stroke-width:9.47883511;stroke-miterlimit:4;stroke-dasharray:none;stroke-opacity:1"
               transform="matrix(0.34599359,0,0,0.51468556,67.791619,34.470597)" />
            <path
               inkscape:connector-curvature="0"
               id="path971-8"
               d="M 110.24064,71.282262 83.394068,44.589985 110.08635,17.743418 136.93291,44.435695 Z"
               style="fill:#ffffff;stroke:#000000;stroke-width:9.47883511;stroke-miterlimit:4;stroke-dasharray:none;stroke-opacity:1"
               transform="matrix(0.34599359,0,0,0.51468556,30.903947,47.060677)" />
            <path
               inkscape:connector-curvature="0"
               id="path971-4"
               d="M 110.24064,71.282262 83.394068,44.589985 110.08635,17.743418 136.93291,44.435695 Z"
               style="fill:#ffffff;stroke:#000000;stroke-width:9.4788866;stroke-miterlimit:4;stroke-dasharray:none;stroke-opacity:1"
               transform="matrix(0.34599359,0,0,0.51467993,104.96344,46.906486)" />
            <path
               inkscape:connector-curvature="0"
               id="path971-9"
               d="M 110.24064,71.282262 83.394068,44.589985 110.08635,17.743418 136.93291,44.435695 Z"
               style="fill:#ffffff;stroke:#000000;stroke-width:9.47883511;stroke-miterlimit:4;stroke-dasharray:none;stroke-opacity:1"
               transform="matrix(0.34599359,0,0,0.51468556,129.49565,76.144456)" />
            <path
               inkscape:connector-curvature="0"
               id="path971-0"
               d="M 110.24064,71.282262 83.394068,44.589985 110.08635,17.743418 136.93291,44.435695 Z"
               style="fill:#ffffff;stroke:#000000;stroke-width:9.47883511;stroke-miterlimit:4;stroke-dasharray:none;stroke-opacity:1"
               transform="matrix(0.34599359,0,0,0.51468556,139.60168,113.01992)" />
            <path
               inkscape:connector-curvature="0"
               id="path971-5"
               d="M 110.24064,71.282262 83.394068,44.589985 110.08635,17.743418 136.93291,44.435695 Z"
               style="fill:#ffffff;stroke:#000000;stroke-width:9.47883511;stroke-miterlimit:4;stroke-dasharray:none;stroke-opacity:1"
               transform="matrix(0.34599359,0,0,0.51468556,129.5728,149.4325)" />
            <path
               inkscape:connector-curvature="0"
               id="path971-03"
               d="M 110.24064,71.282262 83.394068,44.589985 110.08635,17.743418 136.93291,44.435695 Z"
               style="fill:#ffffff;stroke:#000000;stroke-width:9.47883511;stroke-miterlimit:4;stroke-dasharray:none;stroke-opacity:1"
               transform="matrix(0.34599359,0,0,0.51468556,104.96359,173.9647)" />
            <path
               inkscape:connector-curvature="0"
               id="path971-1"
               d="M 110.24064,71.282262 83.394068,44.589985 110.08635,17.743418 136.93291,44.435695 Z"
               style="fill:#ffffff;stroke:#000000;stroke-width:9.47883511;stroke-miterlimit:4;stroke-dasharray:none;stroke-opacity:1"
               transform="matrix(0.34599359,0,0,0.51468556,67.791592,184.22503)" />
            <path
               inkscape:connector-curvature="0"
               id="path971-2"
               d="M 110.24064,71.282262 83.394068,44.589985 110.08635,17.743418 136.93291,44.435695 Z"
               style="fill:#ffffff;stroke:#000000;stroke-width:9.47883511;stroke-miterlimit:4;stroke-dasharray:none;stroke-opacity:1"
               transform="matrix(0.34599359,0,0,0.51468556,30.903592,173.96471)" />
            <path
               inkscape:connector-curvature="0"
               id="path971-94"
               d="M 110.24064,71.282262 83.394068,44.589985 110.08635,17.743418 136.93291,44.435695 Z"
               style="fill:#ffffff;stroke:#000000;stroke-width:9.47883511;stroke-miterlimit:4;stroke-dasharray:none;stroke-opacity:1"
               transform="matrix(0.34599359,0,0,0.51468556,1.7965915,149.50964)" />
            <path
               inkscape:connector-curvature="0"
               id="path971-7"
               d="M 110.24064,71.282262 83.394068,44.589985 110.08635,17.743418 136.93291,44.435695 Z"
               style="fill:#ffffff;stroke:#000000;stroke-width:9.47883511;stroke-miterlimit:4;stroke-dasharray:none;stroke-opacity:1"
               transform="matrix(0.34599359,0,0,0.51468556,-10.523083,112.94277)" />
            <path
               inkscape:connector-curvature="0"
               id="path971-59"
               style="fill:#ffffff;stroke:#000000;stroke-width:4;stroke-miterlimit:4;stroke-dasharray:none;stroke-opacity:1"
               d="m 39.909537,82.345361 -9.23544,13.817245 9.288654,13.738184 9.235438,-13.817249 z" />
          </g>
        </g>
        <g
           transform="matrix(0.23484155,0,0,0.23484155,122.86977,193.3726)"
           inkscape:label="Layer 1"
           id="layer1-3">
          <path
             inkscape:connector-curvature="0"
             id="path18576-93"
             d="M 32.619136,59.829068 18.358508,73.106204 5.0813721,58.845576 19.342,45.56844 Z"
             style="fill:#ffffff;stroke:#000000;stroke-width:4.86502218;stroke-miterlimit:4;stroke-dasharray:none;stroke-opacity:1"
             transform="matrix(0.67486595,0,0,1.0016887,68.608015,147.90874)" />
          <path
             inkscape:connector-curvature="0"
             id="path18576-93-8"
             d="M 32.619136,59.829068 18.358508,73.106204 5.0813721,58.845576 19.342,45.56844 Z"
             style="fill:#ffffff;stroke:#000000;stroke-width:4.86502218;stroke-miterlimit:4;stroke-dasharray:none;stroke-opacity:1"
             transform="matrix(0.67486595,0,0,1.0016887,18.727067,147.90846)" />
          <path
             inkscape:connector-curvature="0"
             id="path18576-93-40"
             d="M 32.619136,59.829068 18.358508,73.106204 5.0813721,58.845576 19.342,45.56844 Z"
             style="fill:#ffffff;stroke:#000000;stroke-width:4.86502218;stroke-miterlimit:4;stroke-dasharray:none;stroke-opacity:1"
             transform="matrix(0.67486595,0,0,1.0016887,165.83014,147.90874)" />
          <path
             inkscape:connector-curvature="0"
             id="path18576-93-86"
             d="M 32.619136,59.829068 18.358508,73.106204 5.0813721,58.845576 19.342,45.56844 Z"
             style="fill:#ffffff;stroke:#000000;stroke-width:4.86502218;stroke-miterlimit:4;stroke-dasharray:none;stroke-opacity:1"
             transform="matrix(0.67486595,0,0,1.0016887,43.616746,104.63117)" />
          <path
             inkscape:connector-curvature="0"
             id="path18576-93-3"
             d="M 32.619136,59.829068 18.358508,73.106204 5.0813721,58.845576 19.342,45.56844 Z"
             style="fill:#ffffff;stroke:#000000;stroke-width:4.86502218;stroke-miterlimit:4;stroke-dasharray:none;stroke-opacity:1"
             transform="matrix(0.67486595,0,0,1.0016887,68.404834,63.182458)" />
          <path
             inkscape:connector-curvature="0"
             id="path18576-93-34"
             d="M 32.619136,59.829068 18.358508,73.106204 5.0813721,58.845576 19.342,45.56844 Z"
             style="fill:#ffffff;stroke:#000000;stroke-width:4.86502218;stroke-miterlimit:4;stroke-dasharray:none;stroke-opacity:1"
             transform="matrix(0.67486595,0,0,1.0016887,93.292689,19.599905)" />
          <path
             inkscape:connector-curvature="0"
             id="path18576-93-7"
             d="M 32.619136,59.829068 18.358508,73.106204 5.0813721,58.845576 19.342,45.56844 Z"
             style="fill:#ffffff;stroke:#000000;stroke-width:4.86502218;stroke-miterlimit:4;stroke-dasharray:none;stroke-opacity:1"
             transform="matrix(0.67486595,0,0,1.0016887,119.50486,63.18224)" />
          <path
             inkscape:connector-curvature="0"
             id="path18576-93-4"
             d="M 32.619136,59.829068 18.358508,73.106204 5.0813721,58.845576 19.342,45.56844 Z"
             style="fill:#ffffff;stroke:#000000;stroke-width:4.86502218;stroke-miterlimit:4;stroke-dasharray:none;stroke-opacity:1"
             transform="matrix(0.67486595,0,0,1.0016887,141.14364,104.63146)" />
          <path
             inkscape:connector-curvature="0"
             id="path18576-93-0"
             d="M 32.619136,59.829068 18.358508,73.106204 5.0813721,58.845576 19.342,45.56844 Z"
             style="fill:#ffffff;stroke:#000000;stroke-width:4.86502218;stroke-miterlimit:4;stroke-dasharray:none;stroke-opacity:1"
             transform="matrix(0.67486595,0,0,1.0016887,119.0985,147.90846)" />
        </g>
      </g>
    </g>
    <text
       xml:space="preserve"
       style="font-style:normal;font-weight:normal;font-size:10.58333302px;line-height:1.25;font-family:sans-serif;letter-spacing:0px;word-spacing:0px;fill:#000000;fill-opacity:1;stroke:none;stroke-width:0.26458332"
       x="15.875"
       y="127.66666"
       id="text836"><tspan
         sodipodi:role="line"
         id="tspan834"
         x="15.875"
         y="137.32216"
         style="stroke-width:0.26458332" /></text>
  </g>
</svg>
