<?xml version="1.0" encoding="UTF-8" standalone="no"?>
<!-- Created with Inkscape (http://www.inkscape.org/) -->

<svg
   xmlns:dc="http://purl.org/dc/elements/1.1/"
   xmlns:cc="http://creativecommons.org/ns#"
   xmlns:rdf="http://www.w3.org/1999/02/22-rdf-syntax-ns#"
   xmlns:svg="http://www.w3.org/2000/svg"
   xmlns="http://www.w3.org/2000/svg"
   xmlns:sodipodi="http://sodipodi.sourceforge.net/DTD/sodipodi-0.dtd"
   xmlns:inkscape="http://www.inkscape.org/namespaces/inkscape"
   width="210mm"
   height="140mm"
   viewBox="0 0 210 140"
   version="1.1"
   id="svg920"
   inkscape:version="0.92.2 5c3e80d, 2017-08-06"
   sodipodi:docname="resources_example_3_mask.svg">
  <metadata
     id="metadata95">
    <rdf:RDF>
      <cc:Work
         rdf:about="">
        <dc:format>image/svg+xml</dc:format>
        <dc:type
           rdf:resource="http://purl.org/dc/dcmitype/StillImage" />
        <dc:title></dc:title>
      </cc:Work>
    </rdf:RDF>
  </metadata>
  <sodipodi:namedview
     id="namedview922"
     pagecolor="#ffffff"
     bordercolor="#000000"
     borderopacity="0.25"
     inkscape:showpageshadow="2"
     inkscape:pageopacity="0"
     inkscape:pagecheckerboard="0"
     inkscape:deskcolor="#d1d1d1"
     inkscape:document-units="mm"
     showgrid="true"
     inkscape:zoom="1.28"
     inkscape:cx="366.35206"
     inkscape:cy="239.19818"
     inkscape:window-width="2183"
     inkscape:window-height="1260"
     inkscape:window-x="178"
     inkscape:window-y="49"
     inkscape:window-maximized="0"
     inkscape:current-layer="layer5"
     showguides="false">
    <inkscape:grid
       type="xygrid"
       id="grid2181" />
  </sodipodi:namedview>
  <defs
     id="defs917" />
  <g
     inkscape:groupmode="layer"
     id="layer5"
     inkscape:label="bottom layer"
     style="display:inline">
    <rect
       style="display:inline;fill:none;stroke:#cccccc;stroke-width:1.97646511;stroke-linecap:square;stroke-linejoin:miter;stroke-miterlimit:4;stroke-dasharray:none;stroke-opacity:1;paint-order:fill markers stroke"
       id="rect1281"
       width="208.02353"
       height="138.02353"
       x="0.98823547"
       y="0.98823547" />
  </g>
  <g
     inkscape:label="Layer 1"
     inkscape:groupmode="layer"
     id="layer1"
     transform="translate(0,-157)"
     style="display:inline">
    <g
       id="g908">
      <g
         aria-label="+"
         style="font-style:normal;font-variant:normal;font-weight:normal;font-stretch:normal;font-size:35.27777863px;line-height:1.25;font-family:aVENIR;-inkscape-font-specification:aVENIR;letter-spacing:0px;word-spacing:0px;fill:#000000;fill-opacity:1;stroke:none;stroke-width:0.26458332"
         id="text2077">
        <path
           d="m 106.05834,225.94166 h 7.9375 v 2.11667 h -7.9375 v 7.9375 h -2.11667 v -7.9375 h -7.937501 v -2.11667 h 7.937501 v -7.9375 h 2.11667 z"
           style="font-style:normal;font-variant:normal;font-weight:normal;font-stretch:normal;font-size:35.27777863px;font-family:aVENIR;-inkscape-font-specification:aVENIR;stroke-width:0.26458332"
           id="path1018"
           inkscape:connector-curvature="0" />
      </g>
      <g
         id="layer1-79"
         inkscape:label="Layer 1"
         transform="matrix(0.21048784,0,0,0.21048784,37.898776,195.96683)">
        <g
           aria-label="#  #  #  #  #    "
           style="font-style:oblique;font-variant:normal;font-weight:900;font-stretch:normal;font-size:35.98333359px;font-family:Avenir;-inkscape-font-specification:'Avenir Heavy Oblique';fill:#000000;stroke:#000000;stroke-width:0;stroke-miterlimit:4;stroke-dasharray:none"
           id="text5481">
          <path
             d="M 13.221137,72.746115 H 9.9826367 l 0.4318003,-3.0226 h 3.634316 l 1.259417,-4.389966 h -3.2385 l 0.4318,-3.0226 h 3.634317 l 2.123016,-7.520517 h 3.166534 l -2.123017,7.520517 h 3.706283 l 2.123017,-7.520517 h 3.13055 l -2.123017,7.520517 h 3.238501 l -0.4318,3.0226 h -3.670301 l -1.223433,4.389966 h 3.2385 l -0.4318,3.0226 h -3.598333 l -2.159,7.520517 h -3.13055 l 2.123016,-7.520517 h -3.742266 l -2.123017,7.520517 h -3.13055 z m 5.217583,-7.412566 -1.223433,4.389966 h 3.706283 l 1.223433,-4.389966 z"
             style="font-style:oblique;font-variant:normal;font-weight:900;font-stretch:normal;font-size:35.98333359px;font-family:Avenir;-inkscape-font-specification:'Avenir Heavy Oblique';stroke-width:0;stroke-miterlimit:4;stroke-dasharray:none"
             id="path862"
             inkscape:connector-curvature="0" />
          <path
             d="m 55.881064,72.746115 h -3.2385 l 0.4318,-3.0226 h 3.634317 l 1.259416,-4.389966 h -3.2385 l 0.4318,-3.0226 h 3.634317 l 2.123017,-7.520517 h 3.166533 l -2.123017,7.520517 h 3.706284 l 2.123017,-7.520517 h 3.13055 l -2.123017,7.520517 h 3.2385 l -0.4318,3.0226 h -3.6703 l -1.223433,4.389966 h 3.2385 l -0.4318,3.0226 h -3.598334 l -2.159,7.520517 h -3.13055 l 2.123017,-7.520517 h -3.742267 l -2.123017,7.520517 h -3.13055 z m 5.217583,-7.412566 -1.223433,4.389966 h 3.706283 l 1.223434,-4.389966 z"
             style="font-style:oblique;font-variant:normal;font-weight:900;font-stretch:normal;font-size:35.98333359px;font-family:Avenir;-inkscape-font-specification:'Avenir Heavy Oblique';stroke-width:0;stroke-miterlimit:4;stroke-dasharray:none"
             id="path864"
             inkscape:connector-curvature="0" />
          <path
             d="m 98.540991,72.746115 h -3.2385 l 0.4318,-3.0226 h 3.634317 l 1.259412,-4.389966 h -3.238495 l 0.4318,-3.0226 h 3.634315 l 2.12302,-7.520517 h 3.16653 l -2.12302,7.520517 h 3.70629 l 2.12301,-7.520517 h 3.13055 l -2.12301,7.520517 h 3.2385 l -0.4318,3.0226 h -3.6703 l -1.22344,4.389966 h 3.2385 l -0.4318,3.0226 h -3.59833 l -2.159,7.520517 h -3.13055 l 2.12302,-7.520517 h -3.74227 l -2.123015,7.520517 h -3.13055 z m 5.217579,-7.412566 -1.22343,4.389966 h 3.70628 l 1.22344,-4.389966 z"
             style="font-style:oblique;font-variant:normal;font-weight:900;font-stretch:normal;font-size:35.98333359px;font-family:Avenir;-inkscape-font-specification:'Avenir Heavy Oblique';stroke-width:0;stroke-miterlimit:4;stroke-dasharray:none"
             id="path866"
             inkscape:connector-curvature="0" />
          <path
             d="m 141.20093,72.746115 h -3.2385 l 0.4318,-3.0226 h 3.63431 l 1.25942,-4.389966 h -3.2385 l 0.4318,-3.0226 h 3.63432 l 2.12301,-7.520517 h 3.16654 l -2.12302,7.520517 h 3.70628 l 2.12302,-7.520517 h 3.13055 l -2.12302,7.520517 h 3.2385 l -0.4318,3.0226 h -3.6703 l -1.22343,4.389966 h 3.2385 l -0.4318,3.0226 h -3.59833 l -2.159,7.520517 h -3.13055 l 2.12301,-7.520517 h -3.74226 l -2.12302,7.520517 h -3.13055 z m 5.21758,-7.412566 -1.22343,4.389966 h 3.70628 l 1.22343,-4.389966 z"
             style="font-style:oblique;font-variant:normal;font-weight:900;font-stretch:normal;font-size:35.98333359px;font-family:Avenir;-inkscape-font-specification:'Avenir Heavy Oblique';stroke-width:0;stroke-miterlimit:4;stroke-dasharray:none"
             id="path868"
             inkscape:connector-curvature="0" />
          <path
             d="m 183.86085,72.746115 h -3.2385 l 0.4318,-3.0226 h 3.63431 l 1.25942,-4.389966 h -3.2385 l 0.4318,-3.0226 h 3.63432 l 2.12301,-7.520517 h 3.16654 l -2.12302,7.520517 h 3.70628 l 2.12302,-7.520517 h 3.13055 l -2.12302,7.520517 h 3.2385 l -0.4318,3.0226 h -3.6703 l -1.22343,4.389966 h 3.2385 l -0.4318,3.0226 h -3.59833 l -2.159,7.520517 h -3.13055 l 2.12301,-7.520517 h -3.74226 l -2.12302,7.520517 h -3.13055 z m 5.21758,-7.412566 -1.22343,4.389966 h 3.70628 l 1.22343,-4.389966 z"
             style="font-style:oblique;font-variant:normal;font-weight:900;font-stretch:normal;font-size:35.98333359px;font-family:Avenir;-inkscape-font-specification:'Avenir Heavy Oblique';stroke-width:0;stroke-miterlimit:4;stroke-dasharray:none"
             id="path870"
             inkscape:connector-curvature="0" />
        </g>
        <g
           style="font-size:35.27769852px;font-family:Calibri;-inkscape-font-specification:Calibri;fill:#000000;stroke:#000000;stroke-width:0"
           id="text5848" />
        <g
           aria-label="#  #  #  #  # "
           style="font-style:oblique;font-variant:normal;font-weight:900;font-stretch:normal;font-size:35.98333359px;font-family:Avenir;-inkscape-font-specification:'Avenir Heavy Oblique';fill:#000000;stroke:#000000;stroke-width:0;stroke-miterlimit:4;stroke-dasharray:none"
           id="text8795">
          <path
             d="M 13.221137,151.84266 H 9.9826367 l 0.4318003,-3.0226 h 3.634316 l 1.259417,-4.38997 h -3.2385 l 0.4318,-3.0226 h 3.634317 l 2.123016,-7.52052 h 3.166534 l -2.123017,7.52052 h 3.706283 l 2.123017,-7.52052 h 3.13055 l -2.123017,7.52052 h 3.238501 l -0.4318,3.0226 h -3.670301 l -1.223433,4.38997 h 3.2385 l -0.4318,3.0226 h -3.598333 l -2.159,7.52051 h -3.13055 l 2.123016,-7.52051 h -3.742266 l -2.123017,7.52051 h -3.13055 z m 5.217583,-7.41257 -1.223433,4.38997 h 3.706283 l 1.223433,-4.38997 z"
             style="font-style:oblique;font-variant:normal;font-weight:900;font-stretch:normal;font-size:35.98333359px;font-family:Avenir;-inkscape-font-specification:'Avenir Heavy Oblique';stroke-width:0;stroke-miterlimit:4;stroke-dasharray:none"
             id="path874"
             inkscape:connector-curvature="0" />
          <path
             d="m 55.881064,151.84266 h -3.2385 l 0.4318,-3.0226 h 3.634317 l 1.259416,-4.38997 h -3.2385 l 0.4318,-3.0226 h 3.634317 l 2.123017,-7.52052 h 3.166533 l -2.123017,7.52052 h 3.706284 l 2.123017,-7.52052 h 3.13055 l -2.123017,7.52052 h 3.2385 l -0.4318,3.0226 h -3.6703 l -1.223433,4.38997 h 3.2385 l -0.4318,3.0226 h -3.598334 l -2.159,7.52051 h -3.13055 l 2.123017,-7.52051 h -3.742267 l -2.123017,7.52051 h -3.13055 z m 5.217583,-7.41257 -1.223433,4.38997 h 3.706283 l 1.223434,-4.38997 z"
             style="font-style:oblique;font-variant:normal;font-weight:900;font-stretch:normal;font-size:35.98333359px;font-family:Avenir;-inkscape-font-specification:'Avenir Heavy Oblique';stroke-width:0;stroke-miterlimit:4;stroke-dasharray:none"
             id="path876"
             inkscape:connector-curvature="0" />
          <path
             d="m 98.540991,151.84266 h -3.2385 l 0.4318,-3.0226 h 3.634317 l 1.259412,-4.38997 h -3.238495 l 0.4318,-3.0226 h 3.634315 l 2.12302,-7.52052 h 3.16653 l -2.12302,7.52052 h 3.70629 l 2.12301,-7.52052 h 3.13055 l -2.12301,7.52052 h 3.2385 l -0.4318,3.0226 h -3.6703 l -1.22344,4.38997 h 3.2385 l -0.4318,3.0226 h -3.59833 l -2.159,7.52051 h -3.13055 l 2.12302,-7.52051 h -3.74227 l -2.123015,7.52051 h -3.13055 z m 5.217579,-7.41257 -1.22343,4.38997 h 3.70628 l 1.22344,-4.38997 z"
             style="font-style:oblique;font-variant:normal;font-weight:900;font-stretch:normal;font-size:35.98333359px;font-family:Avenir;-inkscape-font-specification:'Avenir Heavy Oblique';stroke-width:0;stroke-miterlimit:4;stroke-dasharray:none"
             id="path878"
             inkscape:connector-curvature="0" />
          <path
             d="m 141.20093,151.84266 h -3.2385 l 0.4318,-3.0226 h 3.63431 l 1.25942,-4.38997 h -3.2385 l 0.4318,-3.0226 h 3.63432 l 2.12301,-7.52052 h 3.16654 l -2.12302,7.52052 h 3.70628 l 2.12302,-7.52052 h 3.13055 l -2.12302,7.52052 h 3.2385 l -0.4318,3.0226 h -3.6703 l -1.22343,4.38997 h 3.2385 l -0.4318,3.0226 h -3.59833 l -2.159,7.52051 h -3.13055 l 2.12301,-7.52051 h -3.74226 l -2.12302,7.52051 h -3.13055 z m 5.21758,-7.41257 -1.22343,4.38997 h 3.70628 l 1.22343,-4.38997 z"
             style="font-style:oblique;font-variant:normal;font-weight:900;font-stretch:normal;font-size:35.98333359px;font-family:Avenir;-inkscape-font-specification:'Avenir Heavy Oblique';stroke-width:0;stroke-miterlimit:4;stroke-dasharray:none"
             id="path880"
             inkscape:connector-curvature="0" />
          <path
             d="m 183.86085,151.84266 h -3.2385 l 0.4318,-3.0226 h 3.63431 l 1.25942,-4.38997 h -3.2385 l 0.4318,-3.0226 h 3.63432 l 2.12301,-7.52052 h 3.16654 l -2.12302,7.52052 h 3.70628 l 2.12302,-7.52052 h 3.13055 l -2.12302,7.52052 h 3.2385 l -0.4318,3.0226 h -3.6703 l -1.22343,4.38997 h 3.2385 l -0.4318,3.0226 h -3.59833 l -2.159,7.52051 h -3.13055 l 2.12301,-7.52051 h -3.74226 l -2.12302,7.52051 h -3.13055 z m 5.21758,-7.41257 -1.22343,4.38997 h 3.70628 l 1.22343,-4.38997 z"
             style="font-style:oblique;font-variant:normal;font-weight:900;font-stretch:normal;font-size:35.98333359px;font-family:Avenir;-inkscape-font-specification:'Avenir Heavy Oblique';stroke-width:0;stroke-miterlimit:4;stroke-dasharray:none"
             id="path882"
             inkscape:connector-curvature="0" />
        </g>
        <g
           aria-label="#  #  #  #  #"
           style="font-style:oblique;font-variant:normal;font-weight:900;font-stretch:normal;font-size:35.98333359px;font-family:Avenir;-inkscape-font-specification:'Avenir Heavy Oblique';fill:#000000;stroke:#000000;stroke-width:0;stroke-miterlimit:4;stroke-dasharray:none"
           id="text8848">
          <path
             d="M 13.221137,112.78944 H 9.9826367 l 0.4318003,-3.0226 h 3.634316 l 1.259417,-4.38997 h -3.2385 l 0.4318,-3.0226 h 3.634317 l 2.123016,-7.520518 h 3.166534 l -2.123017,7.520518 h 3.706283 l 2.123017,-7.520518 h 3.13055 l -2.123017,7.520518 h 3.238501 l -0.4318,3.0226 h -3.670301 l -1.223433,4.38997 h 3.2385 l -0.4318,3.0226 h -3.598333 l -2.159,7.52051 h -3.13055 l 2.123016,-7.52051 h -3.742266 l -2.123017,7.52051 h -3.13055 z m 5.217583,-7.41257 -1.223433,4.38997 h 3.706283 l 1.223433,-4.38997 z"
             style="font-style:oblique;font-variant:normal;font-weight:900;font-stretch:normal;font-size:35.98333359px;font-family:Avenir;-inkscape-font-specification:'Avenir Heavy Oblique';stroke-width:0;stroke-miterlimit:4;stroke-dasharray:none"
             id="path885"
             inkscape:connector-curvature="0" />
          <path
             d="m 55.881064,112.78944 h -3.2385 l 0.4318,-3.0226 h 3.634317 l 1.259416,-4.38997 h -3.2385 l 0.4318,-3.0226 h 3.634317 l 2.123017,-7.520518 h 3.166533 l -2.123017,7.520518 h 3.706284 l 2.123017,-7.520518 h 3.13055 l -2.123017,7.520518 h 3.2385 l -0.4318,3.0226 h -3.6703 l -1.223433,4.38997 h 3.2385 l -0.4318,3.0226 h -3.598334 l -2.159,7.52051 h -3.13055 l 2.123017,-7.52051 h -3.742267 l -2.123017,7.52051 h -3.13055 z m 5.217583,-7.41257 -1.223433,4.38997 h 3.706283 l 1.223434,-4.38997 z"
             style="font-style:oblique;font-variant:normal;font-weight:900;font-stretch:normal;font-size:35.98333359px;font-family:Avenir;-inkscape-font-specification:'Avenir Heavy Oblique';stroke-width:0;stroke-miterlimit:4;stroke-dasharray:none"
             id="path887"
             inkscape:connector-curvature="0" />
          <path
             d="m 98.540991,112.78944 h -3.2385 l 0.4318,-3.0226 h 3.634317 l 1.259412,-4.38997 h -3.238495 l 0.4318,-3.0226 h 3.634315 l 2.12302,-7.520518 h 3.16653 l -2.12302,7.520518 h 3.70629 l 2.12301,-7.520518 h 3.13055 l -2.12301,7.520518 h 3.2385 l -0.4318,3.0226 h -3.6703 l -1.22344,4.38997 h 3.2385 l -0.4318,3.0226 h -3.59833 l -2.159,7.52051 h -3.13055 l 2.12302,-7.52051 h -3.74227 l -2.123015,7.52051 h -3.13055 z m 5.217579,-7.41257 -1.22343,4.38997 h 3.70628 l 1.22344,-4.38997 z"
             style="font-style:oblique;font-variant:normal;font-weight:900;font-stretch:normal;font-size:35.98333359px;font-family:Avenir;-inkscape-font-specification:'Avenir Heavy Oblique';stroke-width:0;stroke-miterlimit:4;stroke-dasharray:none"
             id="path889"
             inkscape:connector-curvature="0" />
          <path
             d="m 141.20093,112.78944 h -3.2385 l 0.4318,-3.0226 h 3.63431 l 1.25942,-4.38997 h -3.2385 l 0.4318,-3.0226 h 3.63432 l 2.12301,-7.520518 h 3.16654 l -2.12302,7.520518 h 3.70628 l 2.12302,-7.520518 h 3.13055 l -2.12302,7.520518 h 3.2385 l -0.4318,3.0226 h -3.6703 l -1.22343,4.38997 h 3.2385 l -0.4318,3.0226 h -3.59833 l -2.159,7.52051 h -3.13055 l 2.12301,-7.52051 h -3.74226 l -2.12302,7.52051 h -3.13055 z m 5.21758,-7.41257 -1.22343,4.38997 h 3.70628 l 1.22343,-4.38997 z"
             style="font-style:oblique;font-variant:normal;font-weight:900;font-stretch:normal;font-size:35.98333359px;font-family:Avenir;-inkscape-font-specification:'Avenir Heavy Oblique';stroke-width:0;stroke-miterlimit:4;stroke-dasharray:none"
             id="path891"
             inkscape:connector-curvature="0" />
          <path
             d="m 183.86085,112.78944 h -3.2385 l 0.4318,-3.0226 h 3.63431 l 1.25942,-4.38997 h -3.2385 l 0.4318,-3.0226 h 3.63432 l 2.12301,-7.520518 h 3.16654 l -2.12302,7.520518 h 3.70628 l 2.12302,-7.520518 h 3.13055 l -2.12302,7.520518 h 3.2385 l -0.4318,3.0226 h -3.6703 l -1.22343,4.38997 h 3.2385 l -0.4318,3.0226 h -3.59833 l -2.159,7.52051 h -3.13055 l 2.12301,-7.52051 h -3.74226 l -2.12302,7.52051 h -3.13055 z m 5.21758,-7.41257 -1.22343,4.38997 h 3.70628 l 1.22343,-4.38997 z"
             style="font-style:oblique;font-variant:normal;font-weight:900;font-stretch:normal;font-size:35.98333359px;font-family:Avenir;-inkscape-font-specification:'Avenir Heavy Oblique';stroke-width:0;stroke-miterlimit:4;stroke-dasharray:none"
             id="path893"
             inkscape:connector-curvature="0" />
        </g>
        <g
           aria-label="#  #  #  #  #"
           style="font-style:oblique;font-variant:normal;font-weight:900;font-stretch:normal;font-size:35.98333359px;font-family:Avenir;-inkscape-font-specification:'Avenir Heavy Oblique';fill:#000000;stroke:#000000;stroke-width:0;stroke-miterlimit:4;stroke-dasharray:none"
           id="text8852">
          <path
             d="M 13.221137,191.30059 H 9.9826367 l 0.4318003,-3.0226 h 3.634316 l 1.259417,-4.38997 h -3.2385 l 0.4318,-3.0226 h 3.634317 l 2.123016,-7.52051 h 3.166534 l -2.123017,7.52051 h 3.706283 l 2.123017,-7.52051 h 3.13055 l -2.123017,7.52051 h 3.238501 l -0.4318,3.0226 h -3.670301 l -1.223433,4.38997 h 3.2385 l -0.4318,3.0226 h -3.598333 l -2.159,7.52052 h -3.13055 l 2.123016,-7.52052 h -3.742266 l -2.123017,7.52052 h -3.13055 z m 5.217583,-7.41257 -1.223433,4.38997 h 3.706283 l 1.223433,-4.38997 z"
             style="font-style:oblique;font-variant:normal;font-weight:900;font-stretch:normal;font-size:35.98333359px;font-family:Avenir;-inkscape-font-specification:'Avenir Heavy Oblique';stroke-width:0;stroke-miterlimit:4;stroke-dasharray:none"
             id="path896"
             inkscape:connector-curvature="0" />
          <path
             d="m 55.881064,191.30059 h -3.2385 l 0.4318,-3.0226 h 3.634317 l 1.259416,-4.38997 h -3.2385 l 0.4318,-3.0226 h 3.634317 l 2.123017,-7.52051 h 3.166533 l -2.123017,7.52051 h 3.706284 l 2.123017,-7.52051 h 3.13055 l -2.123017,7.52051 h 3.2385 l -0.4318,3.0226 h -3.6703 l -1.223433,4.38997 h 3.2385 l -0.4318,3.0226 h -3.598334 l -2.159,7.52052 h -3.13055 l 2.123017,-7.52052 h -3.742267 l -2.123017,7.52052 h -3.13055 z m 5.217583,-7.41257 -1.223433,4.38997 h 3.706283 l 1.223434,-4.38997 z"
             style="font-style:oblique;font-variant:normal;font-weight:900;font-stretch:normal;font-size:35.98333359px;font-family:Avenir;-inkscape-font-specification:'Avenir Heavy Oblique';stroke-width:0;stroke-miterlimit:4;stroke-dasharray:none"
             id="path898"
             inkscape:connector-curvature="0" />
          <path
             d="m 98.540991,191.30059 h -3.2385 l 0.4318,-3.0226 h 3.634317 l 1.259412,-4.38997 h -3.238495 l 0.4318,-3.0226 h 3.634315 l 2.12302,-7.52051 h 3.16653 l -2.12302,7.52051 h 3.70629 l 2.12301,-7.52051 h 3.13055 l -2.12301,7.52051 h 3.2385 l -0.4318,3.0226 h -3.6703 l -1.22344,4.38997 h 3.2385 l -0.4318,3.0226 h -3.59833 l -2.159,7.52052 h -3.13055 l 2.12302,-7.52052 h -3.74227 l -2.123015,7.52052 h -3.13055 z m 5.217579,-7.41257 -1.22343,4.38997 h 3.70628 l 1.22344,-4.38997 z"
             style="font-style:oblique;font-variant:normal;font-weight:900;font-stretch:normal;font-size:35.98333359px;font-family:Avenir;-inkscape-font-specification:'Avenir Heavy Oblique';stroke-width:0;stroke-miterlimit:4;stroke-dasharray:none"
             id="path900"
             inkscape:connector-curvature="0" />
          <path
             d="m 141.20093,191.30059 h -3.2385 l 0.4318,-3.0226 h 3.63431 l 1.25942,-4.38997 h -3.2385 l 0.4318,-3.0226 h 3.63432 l 2.12301,-7.52051 h 3.16654 l -2.12302,7.52051 h 3.70628 l 2.12302,-7.52051 h 3.13055 l -2.12302,7.52051 h 3.2385 l -0.4318,3.0226 h -3.6703 l -1.22343,4.38997 h 3.2385 l -0.4318,3.0226 h -3.59833 l -2.159,7.52052 h -3.13055 l 2.12301,-7.52052 h -3.74226 l -2.12302,7.52052 h -3.13055 z m 5.21758,-7.41257 -1.22343,4.38997 h 3.70628 l 1.22343,-4.38997 z"
             style="font-style:oblique;font-variant:normal;font-weight:900;font-stretch:normal;font-size:35.98333359px;font-family:Avenir;-inkscape-font-specification:'Avenir Heavy Oblique';stroke-width:0;stroke-miterlimit:4;stroke-dasharray:none"
             id="path902"
             inkscape:connector-curvature="0" />
          <path
             d="m 183.86085,191.30059 h -3.2385 l 0.4318,-3.0226 h 3.63431 l 1.25942,-4.38997 h -3.2385 l 0.4318,-3.0226 h 3.63432 l 2.12301,-7.52051 h 3.16654 l -2.12302,7.52051 h 3.70628 l 2.12302,-7.52051 h 3.13055 l -2.12302,7.52051 h 3.2385 l -0.4318,3.0226 h -3.6703 l -1.22343,4.38997 h 3.2385 l -0.4318,3.0226 h -3.59833 l -2.159,7.52052 h -3.13055 l 2.12301,-7.52052 h -3.74226 l -2.12302,7.52052 h -3.13055 z m 5.21758,-7.41257 -1.22343,4.38997 h 3.70628 l 1.22343,-4.38997 z"
             style="font-style:oblique;font-variant:normal;font-weight:900;font-stretch:normal;font-size:35.98333359px;font-family:Avenir;-inkscape-font-specification:'Avenir Heavy Oblique';stroke-width:0;stroke-miterlimit:4;stroke-dasharray:none"
             id="path904"
             inkscape:connector-curvature="0" />
        </g>
        <g
           aria-label="#  #  #  #  #"
           style="font-style:oblique;font-variant:normal;font-weight:900;font-stretch:normal;font-size:35.98333359px;font-family:Avenir;-inkscape-font-specification:'Avenir Heavy Oblique';fill:#000000;stroke:#000000;stroke-width:0;stroke-miterlimit:4;stroke-dasharray:none"
           id="text8856">
          <path
             d="M 13.221137,231.77025 H 9.9826367 l 0.4318003,-3.0226 h 3.634316 l 1.259417,-4.38996 h -3.2385 l 0.4318,-3.0226 h 3.634317 l 2.123016,-7.52052 h 3.166534 l -2.123017,7.52052 h 3.706283 l 2.123017,-7.52052 h 3.13055 l -2.123017,7.52052 h 3.238501 l -0.4318,3.0226 h -3.670301 l -1.223433,4.38996 h 3.2385 l -0.4318,3.0226 h -3.598333 l -2.159,7.52052 h -3.13055 l 2.123016,-7.52052 h -3.742266 l -2.123017,7.52052 h -3.13055 z m 5.217583,-7.41256 -1.223433,4.38996 h 3.706283 l 1.223433,-4.38996 z"
             style="font-style:oblique;font-variant:normal;font-weight:900;font-stretch:normal;font-size:35.98333359px;font-family:Avenir;-inkscape-font-specification:'Avenir Heavy Oblique';stroke-width:0;stroke-miterlimit:4;stroke-dasharray:none"
             id="path907"
             inkscape:connector-curvature="0" />
          <path
             d="m 55.881064,231.77025 h -3.2385 l 0.4318,-3.0226 h 3.634317 l 1.259416,-4.38996 h -3.2385 l 0.4318,-3.0226 h 3.634317 l 2.123017,-7.52052 h 3.166533 l -2.123017,7.52052 h 3.706284 l 2.123017,-7.52052 h 3.13055 l -2.123017,7.52052 h 3.2385 l -0.4318,3.0226 h -3.6703 l -1.223433,4.38996 h 3.2385 l -0.4318,3.0226 h -3.598334 l -2.159,7.52052 h -3.13055 l 2.123017,-7.52052 h -3.742267 l -2.123017,7.52052 h -3.13055 z m 5.217583,-7.41256 -1.223433,4.38996 h 3.706283 l 1.223434,-4.38996 z"
             style="font-style:oblique;font-variant:normal;font-weight:900;font-stretch:normal;font-size:35.98333359px;font-family:Avenir;-inkscape-font-specification:'Avenir Heavy Oblique';stroke-width:0;stroke-miterlimit:4;stroke-dasharray:none"
             id="path909"
             inkscape:connector-curvature="0" />
          <path
             d="m 98.540991,231.77025 h -3.2385 l 0.4318,-3.0226 h 3.634317 l 1.259412,-4.38996 h -3.238495 l 0.4318,-3.0226 h 3.634315 l 2.12302,-7.52052 h 3.16653 l -2.12302,7.52052 h 3.70629 l 2.12301,-7.52052 h 3.13055 l -2.12301,7.52052 h 3.2385 l -0.4318,3.0226 h -3.6703 l -1.22344,4.38996 h 3.2385 l -0.4318,3.0226 h -3.59833 l -2.159,7.52052 h -3.13055 l 2.12302,-7.52052 h -3.74227 l -2.123015,7.52052 h -3.13055 z m 5.217579,-7.41256 -1.22343,4.38996 h 3.70628 l 1.22344,-4.38996 z"
             style="font-style:oblique;font-variant:normal;font-weight:900;font-stretch:normal;font-size:35.98333359px;font-family:Avenir;-inkscape-font-specification:'Avenir Heavy Oblique';stroke-width:0;stroke-miterlimit:4;stroke-dasharray:none"
             id="path911"
             inkscape:connector-curvature="0" />
          <path
             d="m 141.20093,231.77025 h -3.2385 l 0.4318,-3.0226 h 3.63431 l 1.25942,-4.38996 h -3.2385 l 0.4318,-3.0226 h 3.63432 l 2.12301,-7.52052 h 3.16654 l -2.12302,7.52052 h 3.70628 l 2.12302,-7.52052 h 3.13055 l -2.12302,7.52052 h 3.2385 l -0.4318,3.0226 h -3.6703 l -1.22343,4.38996 h 3.2385 l -0.4318,3.0226 h -3.59833 l -2.159,7.52052 h -3.13055 l 2.12301,-7.52052 h -3.74226 l -2.12302,7.52052 h -3.13055 z m 5.21758,-7.41256 -1.22343,4.38996 h 3.70628 l 1.22343,-4.38996 z"
             style="font-style:oblique;font-variant:normal;font-weight:900;font-stretch:normal;font-size:35.98333359px;font-family:Avenir;-inkscape-font-specification:'Avenir Heavy Oblique';stroke-width:0;stroke-miterlimit:4;stroke-dasharray:none"
             id="path913"
             inkscape:connector-curvature="0" />
          <path
             d="m 183.86085,231.77025 h -3.2385 l 0.4318,-3.0226 h 3.63431 l 1.25942,-4.38996 h -3.2385 l 0.4318,-3.0226 h 3.63432 l 2.12301,-7.52052 h 3.16654 l -2.12302,7.52052 h 3.70628 l 2.12302,-7.52052 h 3.13055 l -2.12302,7.52052 h 3.2385 l -0.4318,3.0226 h -3.6703 l -1.22343,4.38996 h 3.2385 l -0.4318,3.0226 h -3.59833 l -2.159,7.52052 h -3.13055 l 2.12301,-7.52052 h -3.74226 l -2.12302,7.52052 h -3.13055 z m 5.21758,-7.41256 -1.22343,4.38996 h 3.70628 l 1.22343,-4.38996 z"
             style="font-style:oblique;font-variant:normal;font-weight:900;font-stretch:normal;font-size:35.98333359px;font-family:Avenir;-inkscape-font-specification:'Avenir Heavy Oblique';stroke-width:0;stroke-miterlimit:4;stroke-dasharray:none"
             id="path915"
             inkscape:connector-curvature="0" />
        </g>
        <g
           aria-label="#  #  #  #  #"
           style="font-style:oblique;font-variant:normal;font-weight:900;font-stretch:normal;font-size:35.98333359px;font-family:Avenir;-inkscape-font-specification:'Avenir Heavy Oblique';fill:#000000;stroke:#000000;stroke-width:0;stroke-miterlimit:4;stroke-dasharray:none"
           id="text11604">
          <path
             d="M 13.221137,274.06109 H 9.9826367 l 0.4318003,-3.0226 h 3.634316 l 1.259417,-4.38997 h -3.2385 l 0.4318,-3.0226 h 3.634317 l 2.123016,-7.52052 h 3.166534 l -2.123017,7.52052 h 3.706283 l 2.123017,-7.52052 h 3.13055 l -2.123017,7.52052 h 3.238501 l -0.4318,3.0226 h -3.670301 l -1.223433,4.38997 h 3.2385 l -0.4318,3.0226 h -3.598333 l -2.159,7.52051 h -3.13055 l 2.123016,-7.52051 h -3.742266 l -2.123017,7.52051 h -3.13055 z m 5.217583,-7.41257 -1.223433,4.38997 h 3.706283 l 1.223433,-4.38997 z"
             style="font-style:oblique;font-variant:normal;font-weight:900;font-stretch:normal;font-size:35.98333359px;font-family:Avenir;-inkscape-font-specification:'Avenir Heavy Oblique';stroke-width:0;stroke-miterlimit:4;stroke-dasharray:none"
             id="path918"
             inkscape:connector-curvature="0" />
          <path
             d="m 55.881064,274.06109 h -3.2385 l 0.4318,-3.0226 h 3.634317 l 1.259416,-4.38997 h -3.2385 l 0.4318,-3.0226 h 3.634317 l 2.123017,-7.52052 h 3.166533 l -2.123017,7.52052 h 3.706284 l 2.123017,-7.52052 h 3.13055 l -2.123017,7.52052 h 3.2385 l -0.4318,3.0226 h -3.6703 l -1.223433,4.38997 h 3.2385 l -0.4318,3.0226 h -3.598334 l -2.159,7.52051 h -3.13055 l 2.123017,-7.52051 h -3.742267 l -2.123017,7.52051 h -3.13055 z m 5.217583,-7.41257 -1.223433,4.38997 h 3.706283 l 1.223434,-4.38997 z"
             style="font-style:oblique;font-variant:normal;font-weight:900;font-stretch:normal;font-size:35.98333359px;font-family:Avenir;-inkscape-font-specification:'Avenir Heavy Oblique';stroke-width:0;stroke-miterlimit:4;stroke-dasharray:none"
             id="path920"
             inkscape:connector-curvature="0" />
          <path
             d="m 98.540991,274.06109 h -3.2385 l 0.4318,-3.0226 h 3.634317 l 1.259412,-4.38997 h -3.238495 l 0.4318,-3.0226 h 3.634315 l 2.12302,-7.52052 h 3.16653 l -2.12302,7.52052 h 3.70629 l 2.12301,-7.52052 h 3.13055 l -2.12301,7.52052 h 3.2385 l -0.4318,3.0226 h -3.6703 l -1.22344,4.38997 h 3.2385 l -0.4318,3.0226 h -3.59833 l -2.159,7.52051 h -3.13055 l 2.12302,-7.52051 h -3.74227 l -2.123015,7.52051 h -3.13055 z m 5.217579,-7.41257 -1.22343,4.38997 h 3.70628 l 1.22344,-4.38997 z"
             style="font-style:oblique;font-variant:normal;font-weight:900;font-stretch:normal;font-size:35.98333359px;font-family:Avenir;-inkscape-font-specification:'Avenir Heavy Oblique';stroke-width:0;stroke-miterlimit:4;stroke-dasharray:none"
             id="path922"
             inkscape:connector-curvature="0" />
          <path
             d="m 141.20093,274.06109 h -3.2385 l 0.4318,-3.0226 h 3.63431 l 1.25942,-4.38997 h -3.2385 l 0.4318,-3.0226 h 3.63432 l 2.12301,-7.52052 h 3.16654 l -2.12302,7.52052 h 3.70628 l 2.12302,-7.52052 h 3.13055 l -2.12302,7.52052 h 3.2385 l -0.4318,3.0226 h -3.6703 l -1.22343,4.38997 h 3.2385 l -0.4318,3.0226 h -3.59833 l -2.159,7.52051 h -3.13055 l 2.12301,-7.52051 h -3.74226 l -2.12302,7.52051 h -3.13055 z m 5.21758,-7.41257 -1.22343,4.38997 h 3.70628 l 1.22343,-4.38997 z"
             style="font-style:oblique;font-variant:normal;font-weight:900;font-stretch:normal;font-size:35.98333359px;font-family:Avenir;-inkscape-font-specification:'Avenir Heavy Oblique';stroke-width:0;stroke-miterlimit:4;stroke-dasharray:none"
             id="path924"
             inkscape:connector-curvature="0" />
          <path
             d="m 183.86085,274.06109 h -3.2385 l 0.4318,-3.0226 h 3.63431 l 1.25942,-4.38997 h -3.2385 l 0.4318,-3.0226 h 3.63432 l 2.12301,-7.52052 h 3.16654 l -2.12302,7.52052 h 3.70628 l 2.12302,-7.52052 h 3.13055 l -2.12302,7.52052 h 3.2385 l -0.4318,3.0226 h -3.6703 l -1.22343,4.38997 h 3.2385 l -0.4318,3.0226 h -3.59833 l -2.159,7.52051 h -3.13055 l 2.12301,-7.52051 h -3.74226 l -2.12302,7.52051 h -3.13055 z m 5.21758,-7.41257 -1.22343,4.38997 h 3.70628 l 1.22343,-4.38997 z"
             style="font-style:oblique;font-variant:normal;font-weight:900;font-stretch:normal;font-size:35.98333359px;font-family:Avenir;-inkscape-font-specification:'Avenir Heavy Oblique';stroke-width:0;stroke-miterlimit:4;stroke-dasharray:none"
             id="path926"
             inkscape:connector-curvature="0" />
        </g>
        <g
           aria-label="#  #  #  #  #"
           style="font-style:oblique;font-variant:normal;font-weight:900;font-stretch:normal;font-size:35.98333359px;font-family:Avenir;-inkscape-font-specification:'Avenir Heavy Oblique';fill:#000000;stroke:#000000;stroke-width:0;stroke-miterlimit:4;stroke-dasharray:none"
           id="text11608">
          <path
             d="M 13.221137,31.24306 H 9.9826367 l 0.4318003,-3.0226 h 3.634316 l 1.259417,-4.389967 h -3.2385 l 0.4318,-3.0226 h 3.634317 l 2.123016,-7.520517 h 3.166534 l -2.123017,7.520517 h 3.706283 l 2.123017,-7.520517 h 3.13055 l -2.123017,7.520517 h 3.238501 l -0.4318,3.0226 H 25.275553 L 24.05212,28.22046 h 3.2385 l -0.4318,3.0226 h -3.598333 l -2.159,7.520517 h -3.13055 l 2.123016,-7.520517 h -3.742266 l -2.123017,7.520517 h -3.13055 z m 5.217583,-7.412567 -1.223433,4.389967 h 3.706283 l 1.223433,-4.389967 z"
             style="font-style:oblique;font-variant:normal;font-weight:900;font-stretch:normal;font-size:35.98333359px;font-family:Avenir;-inkscape-font-specification:'Avenir Heavy Oblique';stroke-width:0;stroke-miterlimit:4;stroke-dasharray:none"
             id="path929"
             inkscape:connector-curvature="0" />
          <path
             d="m 55.881064,31.24306 h -3.2385 l 0.4318,-3.0226 h 3.634317 l 1.259416,-4.389967 h -3.2385 l 0.4318,-3.0226 h 3.634317 l 2.123017,-7.520517 h 3.166533 l -2.123017,7.520517 h 3.706284 l 2.123017,-7.520517 h 3.13055 l -2.123017,7.520517 h 3.2385 l -0.4318,3.0226 h -3.6703 l -1.223433,4.389967 h 3.2385 l -0.4318,3.0226 h -3.598334 l -2.159,7.520517 h -3.13055 l 2.123017,-7.520517 h -3.742267 l -2.123017,7.520517 h -3.13055 z m 5.217583,-7.412567 -1.223433,4.389967 h 3.706283 l 1.223434,-4.389967 z"
             style="font-style:oblique;font-variant:normal;font-weight:900;font-stretch:normal;font-size:35.98333359px;font-family:Avenir;-inkscape-font-specification:'Avenir Heavy Oblique';stroke-width:0;stroke-miterlimit:4;stroke-dasharray:none"
             id="path931"
             inkscape:connector-curvature="0" />
          <path
             d="m 98.540991,31.24306 h -3.2385 l 0.4318,-3.0226 h 3.634317 l 1.259412,-4.389967 h -3.238495 l 0.4318,-3.0226 h 3.634315 l 2.12302,-7.520517 h 3.16653 l -2.12302,7.520517 h 3.70629 l 2.12301,-7.520517 h 3.13055 l -2.12301,7.520517 h 3.2385 l -0.4318,3.0226 h -3.6703 l -1.22344,4.389967 h 3.2385 l -0.4318,3.0226 h -3.59833 l -2.159,7.520517 h -3.13055 l 2.12302,-7.520517 h -3.74227 l -2.123015,7.520517 h -3.13055 z m 5.217579,-7.412567 -1.22343,4.389967 h 3.70628 l 1.22344,-4.389967 z"
             style="font-style:oblique;font-variant:normal;font-weight:900;font-stretch:normal;font-size:35.98333359px;font-family:Avenir;-inkscape-font-specification:'Avenir Heavy Oblique';stroke-width:0;stroke-miterlimit:4;stroke-dasharray:none"
             id="path933"
             inkscape:connector-curvature="0" />
          <path
             d="m 141.20093,31.24306 h -3.2385 l 0.4318,-3.0226 h 3.63431 l 1.25942,-4.389967 h -3.2385 l 0.4318,-3.0226 h 3.63432 l 2.12301,-7.520517 h 3.16654 l -2.12302,7.520517 h 3.70628 l 2.12302,-7.520517 h 3.13055 l -2.12302,7.520517 h 3.2385 l -0.4318,3.0226 h -3.6703 l -1.22343,4.389967 h 3.2385 l -0.4318,3.0226 h -3.59833 l -2.159,7.520517 h -3.13055 l 2.12301,-7.520517 h -3.74226 l -2.12302,7.520517 h -3.13055 z m 5.21758,-7.412567 -1.22343,4.389967 h 3.70628 l 1.22343,-4.389967 z"
             style="font-style:oblique;font-variant:normal;font-weight:900;font-stretch:normal;font-size:35.98333359px;font-family:Avenir;-inkscape-font-specification:'Avenir Heavy Oblique';stroke-width:0;stroke-miterlimit:4;stroke-dasharray:none"
             id="path935"
             inkscape:connector-curvature="0" />
          <path
             d="m 183.86085,31.24306 h -3.2385 l 0.4318,-3.0226 h 3.63431 l 1.25942,-4.389967 h -3.2385 l 0.4318,-3.0226 h 3.63432 l 2.12301,-7.520517 h 3.16654 l -2.12302,7.520517 h 3.70628 l 2.12302,-7.520517 h 3.13055 l -2.12302,7.520517 h 3.2385 l -0.4318,3.0226 h -3.6703 l -1.22343,4.389967 h 3.2385 l -0.4318,3.0226 h -3.59833 l -2.159,7.520517 h -3.13055 l 2.12301,-7.520517 h -3.74226 l -2.12302,7.520517 h -3.13055 z m 5.21758,-7.412567 -1.22343,4.389967 h 3.70628 l 1.22343,-4.389967 z"
             style="font-style:oblique;font-variant:normal;font-weight:900;font-stretch:normal;font-size:35.98333359px;font-family:Avenir;-inkscape-font-specification:'Avenir Heavy Oblique';stroke-width:0;stroke-miterlimit:4;stroke-dasharray:none"
             id="path937"
             inkscape:connector-curvature="0" />
        </g>
      </g>
      <g
         transform="matrix(0.21048784,0,0,0.21048784,127.89878,195.96683)"
         inkscape:label="Layer 1"
         id="g1820">
        <g
           aria-label="#  #  #  #  #    "
           style="font-style:oblique;font-variant:normal;font-weight:900;font-stretch:normal;font-size:35.98333359px;font-family:Avenir;-inkscape-font-specification:'Avenir Heavy Oblique';fill:#000000;stroke:#000000;stroke-width:0;stroke-miterlimit:4;stroke-dasharray:none"
           id="text1788">
          <path
             d="M 13.221137,72.746115 H 9.9826367 l 0.4318003,-3.0226 h 3.634316 l 1.259417,-4.389966 h -3.2385 l 0.4318,-3.0226 h 3.634317 l 2.123016,-7.520517 h 3.166534 l -2.123017,7.520517 h 3.706283 l 2.123017,-7.520517 h 3.13055 l -2.123017,7.520517 h 3.238501 l -0.4318,3.0226 h -3.670301 l -1.223433,4.389966 h 3.2385 l -0.4318,3.0226 h -3.598333 l -2.159,7.520517 h -3.13055 l 2.123016,-7.520517 h -3.742266 l -2.123017,7.520517 h -3.13055 z m 5.217583,-7.412566 -1.223433,4.389966 h 3.706283 l 1.223433,-4.389966 z"
             style="font-style:oblique;font-variant:normal;font-weight:900;font-stretch:normal;font-size:35.98333359px;font-family:Avenir;-inkscape-font-specification:'Avenir Heavy Oblique';stroke-width:0;stroke-miterlimit:4;stroke-dasharray:none"
             id="path940"
             inkscape:connector-curvature="0" />
          <path
             d="m 55.881064,72.746115 h -3.2385 l 0.4318,-3.0226 h 3.634317 l 1.259416,-4.389966 h -3.2385 l 0.4318,-3.0226 h 3.634317 l 2.123017,-7.520517 h 3.166533 l -2.123017,7.520517 h 3.706284 l 2.123017,-7.520517 h 3.13055 l -2.123017,7.520517 h 3.2385 l -0.4318,3.0226 h -3.6703 l -1.223433,4.389966 h 3.2385 l -0.4318,3.0226 h -3.598334 l -2.159,7.520517 h -3.13055 l 2.123017,-7.520517 h -3.742267 l -2.123017,7.520517 h -3.13055 z m 5.217583,-7.412566 -1.223433,4.389966 h 3.706283 l 1.223434,-4.389966 z"
             style="font-style:oblique;font-variant:normal;font-weight:900;font-stretch:normal;font-size:35.98333359px;font-family:Avenir;-inkscape-font-specification:'Avenir Heavy Oblique';stroke-width:0;stroke-miterlimit:4;stroke-dasharray:none"
             id="path942"
             inkscape:connector-curvature="0" />
          <path
             d="m 98.540991,72.746115 h -3.2385 l 0.4318,-3.0226 h 3.634317 l 1.259412,-4.389966 h -3.238495 l 0.4318,-3.0226 h 3.634315 l 2.12302,-7.520517 h 3.16653 l -2.12302,7.520517 h 3.70629 l 2.12301,-7.520517 h 3.13055 l -2.12301,7.520517 h 3.2385 l -0.4318,3.0226 h -3.6703 l -1.22344,4.389966 h 3.2385 l -0.4318,3.0226 h -3.59833 l -2.159,7.520517 h -3.13055 l 2.12302,-7.520517 h -3.74227 l -2.123015,7.520517 h -3.13055 z m 5.217579,-7.412566 -1.22343,4.389966 h 3.70628 l 1.22344,-4.389966 z"
             style="font-style:oblique;font-variant:normal;font-weight:900;font-stretch:normal;font-size:35.98333359px;font-family:Avenir;-inkscape-font-specification:'Avenir Heavy Oblique';stroke-width:0;stroke-miterlimit:4;stroke-dasharray:none"
             id="path944"
             inkscape:connector-curvature="0" />
          <path
             d="m 141.20093,72.746115 h -3.2385 l 0.4318,-3.0226 h 3.63431 l 1.25942,-4.389966 h -3.2385 l 0.4318,-3.0226 h 3.63432 l 2.12301,-7.520517 h 3.16654 l -2.12302,7.520517 h 3.70628 l 2.12302,-7.520517 h 3.13055 l -2.12302,7.520517 h 3.2385 l -0.4318,3.0226 h -3.6703 l -1.22343,4.389966 h 3.2385 l -0.4318,3.0226 h -3.59833 l -2.159,7.520517 h -3.13055 l 2.12301,-7.520517 h -3.74226 l -2.12302,7.520517 h -3.13055 z m 5.21758,-7.412566 -1.22343,4.389966 h 3.70628 l 1.22343,-4.389966 z"
             style="font-style:oblique;font-variant:normal;font-weight:900;font-stretch:normal;font-size:35.98333359px;font-family:Avenir;-inkscape-font-specification:'Avenir Heavy Oblique';stroke-width:0;stroke-miterlimit:4;stroke-dasharray:none"
             id="path946"
             inkscape:connector-curvature="0" />
          <path
             d="m 183.86085,72.746115 h -3.2385 l 0.4318,-3.0226 h 3.63431 l 1.25942,-4.389966 h -3.2385 l 0.4318,-3.0226 h 3.63432 l 2.12301,-7.520517 h 3.16654 l -2.12302,7.520517 h 3.70628 l 2.12302,-7.520517 h 3.13055 l -2.12302,7.520517 h 3.2385 l -0.4318,3.0226 h -3.6703 l -1.22343,4.389966 h 3.2385 l -0.4318,3.0226 h -3.59833 l -2.159,7.520517 h -3.13055 l 2.12301,-7.520517 h -3.74226 l -2.12302,7.520517 h -3.13055 z m 5.21758,-7.412566 -1.22343,4.389966 h 3.70628 l 1.22343,-4.389966 z"
             style="font-style:oblique;font-variant:normal;font-weight:900;font-stretch:normal;font-size:35.98333359px;font-family:Avenir;-inkscape-font-specification:'Avenir Heavy Oblique';stroke-width:0;stroke-miterlimit:4;stroke-dasharray:none"
             id="path948"
             inkscape:connector-curvature="0" />
        </g>
        <g
           style="font-size:35.27769852px;font-family:Calibri;-inkscape-font-specification:Calibri;fill:#000000;stroke:#000000;stroke-width:0"
           id="text1792" />
        <g
           aria-label="#  #  #  #  # "
           style="font-style:oblique;font-variant:normal;font-weight:900;font-stretch:normal;font-size:35.98333359px;font-family:Avenir;-inkscape-font-specification:'Avenir Heavy Oblique';fill:#000000;stroke:#000000;stroke-width:0;stroke-miterlimit:4;stroke-dasharray:none"
           id="text1798">
          <path
             d="M 13.221137,151.84266 H 9.9826367 l 0.4318003,-3.0226 h 3.634316 l 1.259417,-4.38997 h -3.2385 l 0.4318,-3.0226 h 3.634317 l 2.123016,-7.52052 h 3.166534 l -2.123017,7.52052 h 3.706283 l 2.123017,-7.52052 h 3.13055 l -2.123017,7.52052 h 3.238501 l -0.4318,3.0226 h -3.670301 l -1.223433,4.38997 h 3.2385 l -0.4318,3.0226 h -3.598333 l -2.159,7.52051 h -3.13055 l 2.123016,-7.52051 h -3.742266 l -2.123017,7.52051 h -3.13055 z m 5.217583,-7.41257 -1.223433,4.38997 h 3.706283 l 1.223433,-4.38997 z"
             style="font-style:oblique;font-variant:normal;font-weight:900;font-stretch:normal;font-size:35.98333359px;font-family:Avenir;-inkscape-font-specification:'Avenir Heavy Oblique';stroke-width:0;stroke-miterlimit:4;stroke-dasharray:none"
             id="path952"
             inkscape:connector-curvature="0" />
          <path
             d="m 55.881064,151.84266 h -3.2385 l 0.4318,-3.0226 h 3.634317 l 1.259416,-4.38997 h -3.2385 l 0.4318,-3.0226 h 3.634317 l 2.123017,-7.52052 h 3.166533 l -2.123017,7.52052 h 3.706284 l 2.123017,-7.52052 h 3.13055 l -2.123017,7.52052 h 3.2385 l -0.4318,3.0226 h -3.6703 l -1.223433,4.38997 h 3.2385 l -0.4318,3.0226 h -3.598334 l -2.159,7.52051 h -3.13055 l 2.123017,-7.52051 h -3.742267 l -2.123017,7.52051 h -3.13055 z m 5.217583,-7.41257 -1.223433,4.38997 h 3.706283 l 1.223434,-4.38997 z"
             style="font-style:oblique;font-variant:normal;font-weight:900;font-stretch:normal;font-size:35.98333359px;font-family:Avenir;-inkscape-font-specification:'Avenir Heavy Oblique';stroke-width:0;stroke-miterlimit:4;stroke-dasharray:none"
             id="path954"
             inkscape:connector-curvature="0" />
          <path
             d="m 98.540991,151.84266 h -3.2385 l 0.4318,-3.0226 h 3.634317 l 1.259412,-4.38997 h -3.238495 l 0.4318,-3.0226 h 3.634315 l 2.12302,-7.52052 h 3.16653 l -2.12302,7.52052 h 3.70629 l 2.12301,-7.52052 h 3.13055 l -2.12301,7.52052 h 3.2385 l -0.4318,3.0226 h -3.6703 l -1.22344,4.38997 h 3.2385 l -0.4318,3.0226 h -3.59833 l -2.159,7.52051 h -3.13055 l 2.12302,-7.52051 h -3.74227 l -2.123015,7.52051 h -3.13055 z m 5.217579,-7.41257 -1.22343,4.38997 h 3.70628 l 1.22344,-4.38997 z"
             style="font-style:oblique;font-variant:normal;font-weight:900;font-stretch:normal;font-size:35.98333359px;font-family:Avenir;-inkscape-font-specification:'Avenir Heavy Oblique';stroke-width:0;stroke-miterlimit:4;stroke-dasharray:none"
             id="path956"
             inkscape:connector-curvature="0" />
          <path
             d="m 141.20093,151.84266 h -3.2385 l 0.4318,-3.0226 h 3.63431 l 1.25942,-4.38997 h -3.2385 l 0.4318,-3.0226 h 3.63432 l 2.12301,-7.52052 h 3.16654 l -2.12302,7.52052 h 3.70628 l 2.12302,-7.52052 h 3.13055 l -2.12302,7.52052 h 3.2385 l -0.4318,3.0226 h -3.6703 l -1.22343,4.38997 h 3.2385 l -0.4318,3.0226 h -3.59833 l -2.159,7.52051 h -3.13055 l 2.12301,-7.52051 h -3.74226 l -2.12302,7.52051 h -3.13055 z m 5.21758,-7.41257 -1.22343,4.38997 h 3.70628 l 1.22343,-4.38997 z"
             style="font-style:oblique;font-variant:normal;font-weight:900;font-stretch:normal;font-size:35.98333359px;font-family:Avenir;-inkscape-font-specification:'Avenir Heavy Oblique';stroke-width:0;stroke-miterlimit:4;stroke-dasharray:none"
             id="path958"
             inkscape:connector-curvature="0" />
          <path
             d="m 183.86085,151.84266 h -3.2385 l 0.4318,-3.0226 h 3.63431 l 1.25942,-4.38997 h -3.2385 l 0.4318,-3.0226 h 3.63432 l 2.12301,-7.52052 h 3.16654 l -2.12302,7.52052 h 3.70628 l 2.12302,-7.52052 h 3.13055 l -2.12302,7.52052 h 3.2385 l -0.4318,3.0226 h -3.6703 l -1.22343,4.38997 h 3.2385 l -0.4318,3.0226 h -3.59833 l -2.159,7.52051 h -3.13055 l 2.12301,-7.52051 h -3.74226 l -2.12302,7.52051 h -3.13055 z m 5.21758,-7.41257 -1.22343,4.38997 h 3.70628 l 1.22343,-4.38997 z"
             style="font-style:oblique;font-variant:normal;font-weight:900;font-stretch:normal;font-size:35.98333359px;font-family:Avenir;-inkscape-font-specification:'Avenir Heavy Oblique';stroke-width:0;stroke-miterlimit:4;stroke-dasharray:none"
             id="path960"
             inkscape:connector-curvature="0" />
        </g>
        <g
           aria-label="#  #  #  #  #"
           style="font-style:oblique;font-variant:normal;font-weight:900;font-stretch:normal;font-size:35.98333359px;font-family:Avenir;-inkscape-font-specification:'Avenir Heavy Oblique';fill:#000000;stroke:#000000;stroke-width:0;stroke-miterlimit:4;stroke-dasharray:none"
           id="text1802">
          <path
             d="M 13.221137,112.78944 H 9.9826367 l 0.4318003,-3.0226 h 3.634316 l 1.259417,-4.38997 h -3.2385 l 0.4318,-3.0226 h 3.634317 l 2.123016,-7.520518 h 3.166534 l -2.123017,7.520518 h 3.706283 l 2.123017,-7.520518 h 3.13055 l -2.123017,7.520518 h 3.238501 l -0.4318,3.0226 h -3.670301 l -1.223433,4.38997 h 3.2385 l -0.4318,3.0226 h -3.598333 l -2.159,7.52051 h -3.13055 l 2.123016,-7.52051 h -3.742266 l -2.123017,7.52051 h -3.13055 z m 5.217583,-7.41257 -1.223433,4.38997 h 3.706283 l 1.223433,-4.38997 z"
             style="font-style:oblique;font-variant:normal;font-weight:900;font-stretch:normal;font-size:35.98333359px;font-family:Avenir;-inkscape-font-specification:'Avenir Heavy Oblique';stroke-width:0;stroke-miterlimit:4;stroke-dasharray:none"
             id="path963"
             inkscape:connector-curvature="0" />
          <path
             d="m 55.881064,112.78944 h -3.2385 l 0.4318,-3.0226 h 3.634317 l 1.259416,-4.38997 h -3.2385 l 0.4318,-3.0226 h 3.634317 l 2.123017,-7.520518 h 3.166533 l -2.123017,7.520518 h 3.706284 l 2.123017,-7.520518 h 3.13055 l -2.123017,7.520518 h 3.2385 l -0.4318,3.0226 h -3.6703 l -1.223433,4.38997 h 3.2385 l -0.4318,3.0226 h -3.598334 l -2.159,7.52051 h -3.13055 l 2.123017,-7.52051 h -3.742267 l -2.123017,7.52051 h -3.13055 z m 5.217583,-7.41257 -1.223433,4.38997 h 3.706283 l 1.223434,-4.38997 z"
             style="font-style:oblique;font-variant:normal;font-weight:900;font-stretch:normal;font-size:35.98333359px;font-family:Avenir;-inkscape-font-specification:'Avenir Heavy Oblique';stroke-width:0;stroke-miterlimit:4;stroke-dasharray:none"
             id="path965"
             inkscape:connector-curvature="0" />
          <path
             d="m 98.540991,112.78944 h -3.2385 l 0.4318,-3.0226 h 3.634317 l 1.259412,-4.38997 h -3.238495 l 0.4318,-3.0226 h 3.634315 l 2.12302,-7.520518 h 3.16653 l -2.12302,7.520518 h 3.70629 l 2.12301,-7.520518 h 3.13055 l -2.12301,7.520518 h 3.2385 l -0.4318,3.0226 h -3.6703 l -1.22344,4.38997 h 3.2385 l -0.4318,3.0226 h -3.59833 l -2.159,7.52051 h -3.13055 l 2.12302,-7.52051 h -3.74227 l -2.123015,7.52051 h -3.13055 z m 5.217579,-7.41257 -1.22343,4.38997 h 3.70628 l 1.22344,-4.38997 z"
             style="font-style:oblique;font-variant:normal;font-weight:900;font-stretch:normal;font-size:35.98333359px;font-family:Avenir;-inkscape-font-specification:'Avenir Heavy Oblique';stroke-width:0;stroke-miterlimit:4;stroke-dasharray:none"
             id="path967"
             inkscape:connector-curvature="0" />
          <path
             d="m 141.20093,112.78944 h -3.2385 l 0.4318,-3.0226 h 3.63431 l 1.25942,-4.38997 h -3.2385 l 0.4318,-3.0226 h 3.63432 l 2.12301,-7.520518 h 3.16654 l -2.12302,7.520518 h 3.70628 l 2.12302,-7.520518 h 3.13055 l -2.12302,7.520518 h 3.2385 l -0.4318,3.0226 h -3.6703 l -1.22343,4.38997 h 3.2385 l -0.4318,3.0226 h -3.59833 l -2.159,7.52051 h -3.13055 l 2.12301,-7.52051 h -3.74226 l -2.12302,7.52051 h -3.13055 z m 5.21758,-7.41257 -1.22343,4.38997 h 3.70628 l 1.22343,-4.38997 z"
             style="font-style:oblique;font-variant:normal;font-weight:900;font-stretch:normal;font-size:35.98333359px;font-family:Avenir;-inkscape-font-specification:'Avenir Heavy Oblique';stroke-width:0;stroke-miterlimit:4;stroke-dasharray:none"
             id="path969"
             inkscape:connector-curvature="0" />
          <path
             d="m 183.86085,112.78944 h -3.2385 l 0.4318,-3.0226 h 3.63431 l 1.25942,-4.38997 h -3.2385 l 0.4318,-3.0226 h 3.63432 l 2.12301,-7.520518 h 3.16654 l -2.12302,7.520518 h 3.70628 l 2.12302,-7.520518 h 3.13055 l -2.12302,7.520518 h 3.2385 l -0.4318,3.0226 h -3.6703 l -1.22343,4.38997 h 3.2385 l -0.4318,3.0226 h -3.59833 l -2.159,7.52051 h -3.13055 l 2.12301,-7.52051 h -3.74226 l -2.12302,7.52051 h -3.13055 z m 5.21758,-7.41257 -1.22343,4.38997 h 3.70628 l 1.22343,-4.38997 z"
             style="font-style:oblique;font-variant:normal;font-weight:900;font-stretch:normal;font-size:35.98333359px;font-family:Avenir;-inkscape-font-specification:'Avenir Heavy Oblique';stroke-width:0;stroke-miterlimit:4;stroke-dasharray:none"
             id="path971"
             inkscape:connector-curvature="0" />
        </g>
        <g
           aria-label="#  #  #  #  #"
           style="font-style:oblique;font-variant:normal;font-weight:900;font-stretch:normal;font-size:35.98333359px;font-family:Avenir;-inkscape-font-specification:'Avenir Heavy Oblique';fill:#000000;stroke:#000000;stroke-width:0;stroke-miterlimit:4;stroke-dasharray:none"
           id="text1806">
          <path
             d="M 13.221137,191.30059 H 9.9826367 l 0.4318003,-3.0226 h 3.634316 l 1.259417,-4.38997 h -3.2385 l 0.4318,-3.0226 h 3.634317 l 2.123016,-7.52051 h 3.166534 l -2.123017,7.52051 h 3.706283 l 2.123017,-7.52051 h 3.13055 l -2.123017,7.52051 h 3.238501 l -0.4318,3.0226 h -3.670301 l -1.223433,4.38997 h 3.2385 l -0.4318,3.0226 h -3.598333 l -2.159,7.52052 h -3.13055 l 2.123016,-7.52052 h -3.742266 l -2.123017,7.52052 h -3.13055 z m 5.217583,-7.41257 -1.223433,4.38997 h 3.706283 l 1.223433,-4.38997 z"
             style="font-style:oblique;font-variant:normal;font-weight:900;font-stretch:normal;font-size:35.98333359px;font-family:Avenir;-inkscape-font-specification:'Avenir Heavy Oblique';stroke-width:0;stroke-miterlimit:4;stroke-dasharray:none"
             id="path974"
             inkscape:connector-curvature="0" />
          <path
             d="m 55.881064,191.30059 h -3.2385 l 0.4318,-3.0226 h 3.634317 l 1.259416,-4.38997 h -3.2385 l 0.4318,-3.0226 h 3.634317 l 2.123017,-7.52051 h 3.166533 l -2.123017,7.52051 h 3.706284 l 2.123017,-7.52051 h 3.13055 l -2.123017,7.52051 h 3.2385 l -0.4318,3.0226 h -3.6703 l -1.223433,4.38997 h 3.2385 l -0.4318,3.0226 h -3.598334 l -2.159,7.52052 h -3.13055 l 2.123017,-7.52052 h -3.742267 l -2.123017,7.52052 h -3.13055 z m 5.217583,-7.41257 -1.223433,4.38997 h 3.706283 l 1.223434,-4.38997 z"
             style="font-style:oblique;font-variant:normal;font-weight:900;font-stretch:normal;font-size:35.98333359px;font-family:Avenir;-inkscape-font-specification:'Avenir Heavy Oblique';stroke-width:0;stroke-miterlimit:4;stroke-dasharray:none"
             id="path976"
             inkscape:connector-curvature="0" />
          <path
             d="m 98.540991,191.30059 h -3.2385 l 0.4318,-3.0226 h 3.634317 l 1.259412,-4.38997 h -3.238495 l 0.4318,-3.0226 h 3.634315 l 2.12302,-7.52051 h 3.16653 l -2.12302,7.52051 h 3.70629 l 2.12301,-7.52051 h 3.13055 l -2.12301,7.52051 h 3.2385 l -0.4318,3.0226 h -3.6703 l -1.22344,4.38997 h 3.2385 l -0.4318,3.0226 h -3.59833 l -2.159,7.52052 h -3.13055 l 2.12302,-7.52052 h -3.74227 l -2.123015,7.52052 h -3.13055 z m 5.217579,-7.41257 -1.22343,4.38997 h 3.70628 l 1.22344,-4.38997 z"
             style="font-style:oblique;font-variant:normal;font-weight:900;font-stretch:normal;font-size:35.98333359px;font-family:Avenir;-inkscape-font-specification:'Avenir Heavy Oblique';stroke-width:0;stroke-miterlimit:4;stroke-dasharray:none"
             id="path978"
             inkscape:connector-curvature="0" />
          <path
             d="m 141.20093,191.30059 h -3.2385 l 0.4318,-3.0226 h 3.63431 l 1.25942,-4.38997 h -3.2385 l 0.4318,-3.0226 h 3.63432 l 2.12301,-7.52051 h 3.16654 l -2.12302,7.52051 h 3.70628 l 2.12302,-7.52051 h 3.13055 l -2.12302,7.52051 h 3.2385 l -0.4318,3.0226 h -3.6703 l -1.22343,4.38997 h 3.2385 l -0.4318,3.0226 h -3.59833 l -2.159,7.52052 h -3.13055 l 2.12301,-7.52052 h -3.74226 l -2.12302,7.52052 h -3.13055 z m 5.21758,-7.41257 -1.22343,4.38997 h 3.70628 l 1.22343,-4.38997 z"
             style="font-style:oblique;font-variant:normal;font-weight:900;font-stretch:normal;font-size:35.98333359px;font-family:Avenir;-inkscape-font-specification:'Avenir Heavy Oblique';stroke-width:0;stroke-miterlimit:4;stroke-dasharray:none"
             id="path980"
             inkscape:connector-curvature="0" />
          <path
             d="m 183.86085,191.30059 h -3.2385 l 0.4318,-3.0226 h 3.63431 l 1.25942,-4.38997 h -3.2385 l 0.4318,-3.0226 h 3.63432 l 2.12301,-7.52051 h 3.16654 l -2.12302,7.52051 h 3.70628 l 2.12302,-7.52051 h 3.13055 l -2.12302,7.52051 h 3.2385 l -0.4318,3.0226 h -3.6703 l -1.22343,4.38997 h 3.2385 l -0.4318,3.0226 h -3.59833 l -2.159,7.52052 h -3.13055 l 2.12301,-7.52052 h -3.74226 l -2.12302,7.52052 h -3.13055 z m 5.21758,-7.41257 -1.22343,4.38997 h 3.70628 l 1.22343,-4.38997 z"
             style="font-style:oblique;font-variant:normal;font-weight:900;font-stretch:normal;font-size:35.98333359px;font-family:Avenir;-inkscape-font-specification:'Avenir Heavy Oblique';stroke-width:0;stroke-miterlimit:4;stroke-dasharray:none"
             id="path982"
             inkscape:connector-curvature="0" />
        </g>
        <g
           aria-label="#  #  #  #  #"
           style="font-style:oblique;font-variant:normal;font-weight:900;font-stretch:normal;font-size:35.98333359px;font-family:Avenir;-inkscape-font-specification:'Avenir Heavy Oblique';fill:#000000;stroke:#000000;stroke-width:0;stroke-miterlimit:4;stroke-dasharray:none"
           id="text1810">
          <path
             d="M 13.221137,231.77025 H 9.9826367 l 0.4318003,-3.0226 h 3.634316 l 1.259417,-4.38996 h -3.2385 l 0.4318,-3.0226 h 3.634317 l 2.123016,-7.52052 h 3.166534 l -2.123017,7.52052 h 3.706283 l 2.123017,-7.52052 h 3.13055 l -2.123017,7.52052 h 3.238501 l -0.4318,3.0226 h -3.670301 l -1.223433,4.38996 h 3.2385 l -0.4318,3.0226 h -3.598333 l -2.159,7.52052 h -3.13055 l 2.123016,-7.52052 h -3.742266 l -2.123017,7.52052 h -3.13055 z m 5.217583,-7.41256 -1.223433,4.38996 h 3.706283 l 1.223433,-4.38996 z"
             style="font-style:oblique;font-variant:normal;font-weight:900;font-stretch:normal;font-size:35.98333359px;font-family:Avenir;-inkscape-font-specification:'Avenir Heavy Oblique';stroke-width:0;stroke-miterlimit:4;stroke-dasharray:none"
             id="path985"
             inkscape:connector-curvature="0" />
          <path
             d="m 55.881064,231.77025 h -3.2385 l 0.4318,-3.0226 h 3.634317 l 1.259416,-4.38996 h -3.2385 l 0.4318,-3.0226 h 3.634317 l 2.123017,-7.52052 h 3.166533 l -2.123017,7.52052 h 3.706284 l 2.123017,-7.52052 h 3.13055 l -2.123017,7.52052 h 3.2385 l -0.4318,3.0226 h -3.6703 l -1.223433,4.38996 h 3.2385 l -0.4318,3.0226 h -3.598334 l -2.159,7.52052 h -3.13055 l 2.123017,-7.52052 h -3.742267 l -2.123017,7.52052 h -3.13055 z m 5.217583,-7.41256 -1.223433,4.38996 h 3.706283 l 1.223434,-4.38996 z"
             style="font-style:oblique;font-variant:normal;font-weight:900;font-stretch:normal;font-size:35.98333359px;font-family:Avenir;-inkscape-font-specification:'Avenir Heavy Oblique';stroke-width:0;stroke-miterlimit:4;stroke-dasharray:none"
             id="path987"
             inkscape:connector-curvature="0" />
          <path
             d="m 98.540991,231.77025 h -3.2385 l 0.4318,-3.0226 h 3.634317 l 1.259412,-4.38996 h -3.238495 l 0.4318,-3.0226 h 3.634315 l 2.12302,-7.52052 h 3.16653 l -2.12302,7.52052 h 3.70629 l 2.12301,-7.52052 h 3.13055 l -2.12301,7.52052 h 3.2385 l -0.4318,3.0226 h -3.6703 l -1.22344,4.38996 h 3.2385 l -0.4318,3.0226 h -3.59833 l -2.159,7.52052 h -3.13055 l 2.12302,-7.52052 h -3.74227 l -2.123015,7.52052 h -3.13055 z m 5.217579,-7.41256 -1.22343,4.38996 h 3.70628 l 1.22344,-4.38996 z"
             style="font-style:oblique;font-variant:normal;font-weight:900;font-stretch:normal;font-size:35.98333359px;font-family:Avenir;-inkscape-font-specification:'Avenir Heavy Oblique';stroke-width:0;stroke-miterlimit:4;stroke-dasharray:none"
             id="path989"
             inkscape:connector-curvature="0" />
          <path
             d="m 141.20093,231.77025 h -3.2385 l 0.4318,-3.0226 h 3.63431 l 1.25942,-4.38996 h -3.2385 l 0.4318,-3.0226 h 3.63432 l 2.12301,-7.52052 h 3.16654 l -2.12302,7.52052 h 3.70628 l 2.12302,-7.52052 h 3.13055 l -2.12302,7.52052 h 3.2385 l -0.4318,3.0226 h -3.6703 l -1.22343,4.38996 h 3.2385 l -0.4318,3.0226 h -3.59833 l -2.159,7.52052 h -3.13055 l 2.12301,-7.52052 h -3.74226 l -2.12302,7.52052 h -3.13055 z m 5.21758,-7.41256 -1.22343,4.38996 h 3.70628 l 1.22343,-4.38996 z"
             style="font-style:oblique;font-variant:normal;font-weight:900;font-stretch:normal;font-size:35.98333359px;font-family:Avenir;-inkscape-font-specification:'Avenir Heavy Oblique';stroke-width:0;stroke-miterlimit:4;stroke-dasharray:none"
             id="path991"
             inkscape:connector-curvature="0" />
          <path
             d="m 183.86085,231.77025 h -3.2385 l 0.4318,-3.0226 h 3.63431 l 1.25942,-4.38996 h -3.2385 l 0.4318,-3.0226 h 3.63432 l 2.12301,-7.52052 h 3.16654 l -2.12302,7.52052 h 3.70628 l 2.12302,-7.52052 h 3.13055 l -2.12302,7.52052 h 3.2385 l -0.4318,3.0226 h -3.6703 l -1.22343,4.38996 h 3.2385 l -0.4318,3.0226 h -3.59833 l -2.159,7.52052 h -3.13055 l 2.12301,-7.52052 h -3.74226 l -2.12302,7.52052 h -3.13055 z m 5.21758,-7.41256 -1.22343,4.38996 h 3.70628 l 1.22343,-4.38996 z"
             style="font-style:oblique;font-variant:normal;font-weight:900;font-stretch:normal;font-size:35.98333359px;font-family:Avenir;-inkscape-font-specification:'Avenir Heavy Oblique';stroke-width:0;stroke-miterlimit:4;stroke-dasharray:none"
             id="path993"
             inkscape:connector-curvature="0" />
        </g>
        <g
           aria-label="#  #  #  #  #"
           style="font-style:oblique;font-variant:normal;font-weight:900;font-stretch:normal;font-size:35.98333359px;font-family:Avenir;-inkscape-font-specification:'Avenir Heavy Oblique';fill:#000000;stroke:#000000;stroke-width:0;stroke-miterlimit:4;stroke-dasharray:none"
           id="text1814">
          <path
             d="M 13.221137,274.06109 H 9.9826367 l 0.4318003,-3.0226 h 3.634316 l 1.259417,-4.38997 h -3.2385 l 0.4318,-3.0226 h 3.634317 l 2.123016,-7.52052 h 3.166534 l -2.123017,7.52052 h 3.706283 l 2.123017,-7.52052 h 3.13055 l -2.123017,7.52052 h 3.238501 l -0.4318,3.0226 h -3.670301 l -1.223433,4.38997 h 3.2385 l -0.4318,3.0226 h -3.598333 l -2.159,7.52051 h -3.13055 l 2.123016,-7.52051 h -3.742266 l -2.123017,7.52051 h -3.13055 z m 5.217583,-7.41257 -1.223433,4.38997 h 3.706283 l 1.223433,-4.38997 z"
             style="font-style:oblique;font-variant:normal;font-weight:900;font-stretch:normal;font-size:35.98333359px;font-family:Avenir;-inkscape-font-specification:'Avenir Heavy Oblique';stroke-width:0;stroke-miterlimit:4;stroke-dasharray:none"
             id="path996"
             inkscape:connector-curvature="0" />
          <path
             d="m 55.881064,274.06109 h -3.2385 l 0.4318,-3.0226 h 3.634317 l 1.259416,-4.38997 h -3.2385 l 0.4318,-3.0226 h 3.634317 l 2.123017,-7.52052 h 3.166533 l -2.123017,7.52052 h 3.706284 l 2.123017,-7.52052 h 3.13055 l -2.123017,7.52052 h 3.2385 l -0.4318,3.0226 h -3.6703 l -1.223433,4.38997 h 3.2385 l -0.4318,3.0226 h -3.598334 l -2.159,7.52051 h -3.13055 l 2.123017,-7.52051 h -3.742267 l -2.123017,7.52051 h -3.13055 z m 5.217583,-7.41257 -1.223433,4.38997 h 3.706283 l 1.223434,-4.38997 z"
             style="font-style:oblique;font-variant:normal;font-weight:900;font-stretch:normal;font-size:35.98333359px;font-family:Avenir;-inkscape-font-specification:'Avenir Heavy Oblique';stroke-width:0;stroke-miterlimit:4;stroke-dasharray:none"
             id="path998"
             inkscape:connector-curvature="0" />
          <path
             d="m 98.540991,274.06109 h -3.2385 l 0.4318,-3.0226 h 3.634317 l 1.259412,-4.38997 h -3.238495 l 0.4318,-3.0226 h 3.634315 l 2.12302,-7.52052 h 3.16653 l -2.12302,7.52052 h 3.70629 l 2.12301,-7.52052 h 3.13055 l -2.12301,7.52052 h 3.2385 l -0.4318,3.0226 h -3.6703 l -1.22344,4.38997 h 3.2385 l -0.4318,3.0226 h -3.59833 l -2.159,7.52051 h -3.13055 l 2.12302,-7.52051 h -3.74227 l -2.123015,7.52051 h -3.13055 z m 5.217579,-7.41257 -1.22343,4.38997 h 3.70628 l 1.22344,-4.38997 z"
             style="font-style:oblique;font-variant:normal;font-weight:900;font-stretch:normal;font-size:35.98333359px;font-family:Avenir;-inkscape-font-specification:'Avenir Heavy Oblique';stroke-width:0;stroke-miterlimit:4;stroke-dasharray:none"
             id="path1000"
             inkscape:connector-curvature="0" />
          <path
             d="m 141.20093,274.06109 h -3.2385 l 0.4318,-3.0226 h 3.63431 l 1.25942,-4.38997 h -3.2385 l 0.4318,-3.0226 h 3.63432 l 2.12301,-7.52052 h 3.16654 l -2.12302,7.52052 h 3.70628 l 2.12302,-7.52052 h 3.13055 l -2.12302,7.52052 h 3.2385 l -0.4318,3.0226 h -3.6703 l -1.22343,4.38997 h 3.2385 l -0.4318,3.0226 h -3.59833 l -2.159,7.52051 h -3.13055 l 2.12301,-7.52051 h -3.74226 l -2.12302,7.52051 h -3.13055 z m 5.21758,-7.41257 -1.22343,4.38997 h 3.70628 l 1.22343,-4.38997 z"
             style="font-style:oblique;font-variant:normal;font-weight:900;font-stretch:normal;font-size:35.98333359px;font-family:Avenir;-inkscape-font-specification:'Avenir Heavy Oblique';stroke-width:0;stroke-miterlimit:4;stroke-dasharray:none"
             id="path1002"
             inkscape:connector-curvature="0" />
          <path
             d="m 183.86085,274.06109 h -3.2385 l 0.4318,-3.0226 h 3.63431 l 1.25942,-4.38997 h -3.2385 l 0.4318,-3.0226 h 3.63432 l 2.12301,-7.52052 h 3.16654 l -2.12302,7.52052 h 3.70628 l 2.12302,-7.52052 h 3.13055 l -2.12302,7.52052 h 3.2385 l -0.4318,3.0226 h -3.6703 l -1.22343,4.38997 h 3.2385 l -0.4318,3.0226 h -3.59833 l -2.159,7.52051 h -3.13055 l 2.12301,-7.52051 h -3.74226 l -2.12302,7.52051 h -3.13055 z m 5.21758,-7.41257 -1.22343,4.38997 h 3.70628 l 1.22343,-4.38997 z"
             style="font-style:oblique;font-variant:normal;font-weight:900;font-stretch:normal;font-size:35.98333359px;font-family:Avenir;-inkscape-font-specification:'Avenir Heavy Oblique';stroke-width:0;stroke-miterlimit:4;stroke-dasharray:none"
             id="path1004"
             inkscape:connector-curvature="0" />
        </g>
        <g
           aria-label="#  #  #  #  #"
           style="font-style:oblique;font-variant:normal;font-weight:900;font-stretch:normal;font-size:35.98333359px;font-family:Avenir;-inkscape-font-specification:'Avenir Heavy Oblique';fill:#000000;stroke:#000000;stroke-width:0;stroke-miterlimit:4;stroke-dasharray:none"
           id="text1818">
          <path
             d="M 13.221137,31.24306 H 9.9826367 l 0.4318003,-3.0226 h 3.634316 l 1.259417,-4.389967 h -3.2385 l 0.4318,-3.0226 h 3.634317 l 2.123016,-7.520517 h 3.166534 l -2.123017,7.520517 h 3.706283 l 2.123017,-7.520517 h 3.13055 l -2.123017,7.520517 h 3.238501 l -0.4318,3.0226 H 25.275553 L 24.05212,28.22046 h 3.2385 l -0.4318,3.0226 h -3.598333 l -2.159,7.520517 h -3.13055 l 2.123016,-7.520517 h -3.742266 l -2.123017,7.520517 h -3.13055 z m 5.217583,-7.412567 -1.223433,4.389967 h 3.706283 l 1.223433,-4.389967 z"
             style="font-style:oblique;font-variant:normal;font-weight:900;font-stretch:normal;font-size:35.98333359px;font-family:Avenir;-inkscape-font-specification:'Avenir Heavy Oblique';stroke-width:0;stroke-miterlimit:4;stroke-dasharray:none"
             id="path1007"
             inkscape:connector-curvature="0" />
          <path
             d="m 55.881064,31.24306 h -3.2385 l 0.4318,-3.0226 h 3.634317 l 1.259416,-4.389967 h -3.2385 l 0.4318,-3.0226 h 3.634317 l 2.123017,-7.520517 h 3.166533 l -2.123017,7.520517 h 3.706284 l 2.123017,-7.520517 h 3.13055 l -2.123017,7.520517 h 3.2385 l -0.4318,3.0226 h -3.6703 l -1.223433,4.389967 h 3.2385 l -0.4318,3.0226 h -3.598334 l -2.159,7.520517 h -3.13055 l 2.123017,-7.520517 h -3.742267 l -2.123017,7.520517 h -3.13055 z m 5.217583,-7.412567 -1.223433,4.389967 h 3.706283 l 1.223434,-4.389967 z"
             style="font-style:oblique;font-variant:normal;font-weight:900;font-stretch:normal;font-size:35.98333359px;font-family:Avenir;-inkscape-font-specification:'Avenir Heavy Oblique';stroke-width:0;stroke-miterlimit:4;stroke-dasharray:none"
             id="path1009"
             inkscape:connector-curvature="0" />
          <path
             d="m 98.540991,31.24306 h -3.2385 l 0.4318,-3.0226 h 3.634317 l 1.259412,-4.389967 h -3.238495 l 0.4318,-3.0226 h 3.634315 l 2.12302,-7.520517 h 3.16653 l -2.12302,7.520517 h 3.70629 l 2.12301,-7.520517 h 3.13055 l -2.12301,7.520517 h 3.2385 l -0.4318,3.0226 h -3.6703 l -1.22344,4.389967 h 3.2385 l -0.4318,3.0226 h -3.59833 l -2.159,7.520517 h -3.13055 l 2.12302,-7.520517 h -3.74227 l -2.123015,7.520517 h -3.13055 z m 5.217579,-7.412567 -1.22343,4.389967 h 3.70628 l 1.22344,-4.389967 z"
             style="font-style:oblique;font-variant:normal;font-weight:900;font-stretch:normal;font-size:35.98333359px;font-family:Avenir;-inkscape-font-specification:'Avenir Heavy Oblique';stroke-width:0;stroke-miterlimit:4;stroke-dasharray:none"
             id="path1011"
             inkscape:connector-curvature="0" />
          <path
             d="m 141.20093,31.24306 h -3.2385 l 0.4318,-3.0226 h 3.63431 l 1.25942,-4.389967 h -3.2385 l 0.4318,-3.0226 h 3.63432 l 2.12301,-7.520517 h 3.16654 l -2.12302,7.520517 h 3.70628 l 2.12302,-7.520517 h 3.13055 l -2.12302,7.520517 h 3.2385 l -0.4318,3.0226 h -3.6703 l -1.22343,4.389967 h 3.2385 l -0.4318,3.0226 h -3.59833 l -2.159,7.520517 h -3.13055 l 2.12301,-7.520517 h -3.74226 l -2.12302,7.520517 h -3.13055 z m 5.21758,-7.412567 -1.22343,4.389967 h 3.70628 l 1.22343,-4.389967 z"
             style="font-style:oblique;font-variant:normal;font-weight:900;font-stretch:normal;font-size:35.98333359px;font-family:Avenir;-inkscape-font-specification:'Avenir Heavy Oblique';stroke-width:0;stroke-miterlimit:4;stroke-dasharray:none"
             id="path1013"
             inkscape:connector-curvature="0" />
          <path
             d="m 183.86085,31.24306 h -3.2385 l 0.4318,-3.0226 h 3.63431 l 1.25942,-4.389967 h -3.2385 l 0.4318,-3.0226 h 3.63432 l 2.12301,-7.520517 h 3.16654 l -2.12302,7.520517 h 3.70628 l 2.12302,-7.520517 h 3.13055 l -2.12302,7.520517 h 3.2385 l -0.4318,3.0226 h -3.6703 l -1.22343,4.389967 h 3.2385 l -0.4318,3.0226 h -3.59833 l -2.159,7.520517 h -3.13055 l 2.12301,-7.520517 h -3.74226 l -2.12302,7.520517 h -3.13055 z m 5.21758,-7.412567 -1.22343,4.389967 h 3.70628 l 1.22343,-4.389967 z"
             style="font-style:oblique;font-variant:normal;font-weight:900;font-stretch:normal;font-size:35.98333359px;font-family:Avenir;-inkscape-font-specification:'Avenir Heavy Oblique';stroke-width:0;stroke-miterlimit:4;stroke-dasharray:none"
             id="path1015"
             inkscape:connector-curvature="0" />
        </g>
      </g>
    </g>
    <text
       xml:space="preserve"
       style="font-style:normal;font-weight:normal;font-size:10.58333302px;line-height:1.25;font-family:sans-serif;letter-spacing:0px;word-spacing:0px;fill:#000000;fill-opacity:1;stroke:none;stroke-width:0.26458332"
       x="15.875"
       y="127.66666"
       id="text836"><tspan
         sodipodi:role="line"
         id="tspan834"
         x="15.875"
         y="137.32216"
         style="stroke-width:0.26458332" /></text>
  </g>
</svg>
